<?xml version="1.0" encoding="UTF-8"?>
<svg id="Layer_1" xmlns="http://www.w3.org/2000/svg" version="1.1" viewBox="0 0 192 80">
  <!-- Generator: Adobe Illustrator 30.3.0, SVG Export Plug-In . SVG Version: 2.1.3 Build 182)  -->
  <defs>
    <style>
      .st0, .st1, .st2 {
        fill: #af0322;
      }

      .st3, .st4 {
        fill: #fff;
      }

      .st3, .st5, .st2 {
        font-family: NotoSans-Medium, 'Noto Sans';
        font-size: 8px;
        font-weight: 500;
      }

      .st6 {
        stroke: #01ae7a;
      }

      .st6, .st7, .st8 {
        fill: none;
        stroke-miterlimit: 10;
        stroke-width: .5px;
      }

      .st7 {
        stroke: #fff;
      }

      .st4, .st1, .st9 {
        opacity: .25;
      }

      .st8 {
        stroke: #af0322;
      }

      .st5, .st9, .st10 {
        fill: #01ae7a;
      }
    </style>
  </defs>
  <g>
    <g>
      <rect class="st10" x="2" y="42" width="5" height="23"/>
      <rect class="st10" x="4" y="40" width="1" height="31"/>
    </g>
    <g>
      <rect class="st10" x="9" y="36" width="5" height="6"/>
      <rect class="st10" x="11" y="34" width="1" height="14"/>
    </g>
    <g>
      <rect class="st0" x="16" y="42" width="5" height="6"/>
      <rect class="st0" x="18" y="31" width="1" height="23"/>
    </g>
    <g>
      <rect class="st10" x="23" y="45" width="5" height="3"/>
      <rect class="st10" x="25" y="43" width="1" height="8"/>
    </g>
    <g>
      <rect class="st10" x="30" y="42" width="5" height="3"/>
      <rect class="st10" x="32" y="38" width="1" height="13"/>
    </g>
    <g>
      <rect class="st10" x="37" y="37" width="5" height="5"/>
      <rect class="st10" x="39" y="35" width="1" height="9"/>
    </g>
    <g>
      <rect class="st0" x="44" y="37" width="5" height="2"/>
      <rect class="st0" x="46" y="29" width="1" height="16"/>
    </g>
    <g>
      <rect class="st0" x="51" y="39" width="5" height="7"/>
      <rect class="st0" x="53" y="35" width="1" height="17"/>
    </g>
    <g>
      <rect class="st0" x="58" y="46" width="5" height="6"/>
      <rect class="st0" x="60" y="44" width="1" height="10"/>
    </g>
    <g>
      <rect class="st0" x="65" y="52" width="5" height="2"/>
      <rect class="st0" x="67" y="50" width="1" height="5"/>
    </g>
    <g>
      <rect class="st10" x="92.5" y="30" width="5" height="2"/>
      <rect class="st10" x="94.5" y="28" width="1" height="5"/>
    </g>
    <g>
      <rect class="st10" x="72" y="47" width="5" height="5"/>
      <rect class="st10" x="74" y="40" width="1" height="13"/>
    </g>
    <g>
      <rect class="st10" x="79" y="37" width="5" height="10.5"/>
      <rect class="st10" x="81" y="35" width="1" height="18.5"/>
    </g>
    <g>
      <rect class="st10" x="86" y="32" width="5" height="5"/>
      <rect class="st10" x="88" y="30" width="1" height="9"/>
    </g>
    <g>
      <rect class="st10" x="100" y="26" width="5" height="4"/>
      <rect class="st10" x="102" y="24" width="1" height="12"/>
    </g>
    <g>
      <rect class="st0" x="107" y="30" width="5" height="6"/>
      <rect class="st0" x="109" y="28" width="1" height="14"/>
    </g>
    <g>
      <rect class="st0" x="114" y="34" width="5" height="2"/>
      <rect class="st0" x="116" y="32" width="1" height="5"/>
    </g>
    <g>
      <rect class="st10" x="121" y="33" width="5" height="3"/>
      <rect class="st10" x="123" y="31" width="1" height="11"/>
    </g>
    <g>
      <rect class="st0" x="128" y="33" width="5" height="5"/>
      <rect class="st0" x="130" y="26" width="1" height="14"/>
    </g>
    <g>
      <rect class="st0" x="135" y="38" width="5" height="7"/>
      <rect class="st0" x="137" y="31" width="1" height="20"/>
    </g>
    <g>
      <rect class="st0" x="142" y="45" width="5" height="8"/>
      <rect class="st0" x="144" y="43" width="1" height="13"/>
    </g>
    <g>
      <rect class="st0" x="149" y="53" width="5" height="3"/>
      <rect class="st0" x="151" y="51" width="1" height="8"/>
    </g>
    <g>
      <rect class="st10" x="156" y="50" width="5" height="6"/>
      <rect class="st10" x="158" y="48" width="1" height="9"/>
    </g>
    <g>
      <rect class="st10" x="163" y="47" width="5" height="3"/>
      <rect class="st10" x="165" y="45" width="1" height="7"/>
    </g>
    <g>
      <rect class="st10" x="170" y="42" width="5" height="5"/>
      <rect class="st10" x="172" y="38" width="1" height="15"/>
    </g>
    <g>
      <rect class="st10" x="177" y="36" width="5" height="6"/>
      <rect class="st10" x="179" y="34" width="1" height="9"/>
    </g>
    <g>
      <rect class="st0" x="184" y="36" width="5" height="12"/>
      <rect class="st0" x="186" y="35" width="1" height="19.59"/>
    </g>
  </g>
  <line class="st7" y1="40" x2="192" y2="40"/>
  <line class="st6" y1="18" x2="192" y2="18"/>
  <line class="st8" y1="62" x2="192" y2="62"/>
  <polygon class="st9" points="160 0 192 0 192 17 188 13 160 13 160 0"/>
  <polygon class="st4" points="32 22 0 22 0 39 4 35 32 35 32 22"/>
  <polygon class="st1" points="160 80 192 80 192 63 188 67 160 67 160 80"/>
  <text class="st5" transform="translate(165.76 9.89)"><tspan x="0" y="0">1.096</tspan></text>
  <text class="st2" transform="translate(165.76 76)"><tspan x="0" y="0">1.088</tspan></text>
  <text class="st3" transform="translate(5.76 31.89)"><tspan x="0" y="0">1.092</tspan></text>
</svg>