<?xml version="1.0" encoding="UTF-8"?>
<svg id="Layer_1" xmlns="http://www.w3.org/2000/svg" version="1.1" xmlns:xlink="http://www.w3.org/1999/xlink" viewBox="0 0 85.11 66">
  <!-- Generator: Adobe Illustrator 30.3.0, SVG Export Plug-In . SVG Version: 2.1.3 Build 182)  -->
  <defs>
    <style>
      .st0 {
        fill: url(#linear-gradient1);
      }

      .st0, .st1, .st2 {
        fill-rule: evenodd;
      }

      .st1 {
        fill: url(#linear-gradient);
      }

      .st2 {
        fill: url(#linear-gradient2);
      }
    </style>
    <linearGradient id="linear-gradient" x1="36.26" y1="11.26" x2="77.73" y2="52.73" gradientTransform="translate(6.56 -9.16) rotate(9.73)" gradientUnits="userSpaceOnUse">
      <stop offset="0" stop-color="#01ae7a" stop-opacity=".5"/>
      <stop offset="1" stop-color="#01ae7a" stop-opacity=".1"/>
    </linearGradient>
    <linearGradient id="linear-gradient1" x1="6.59" y1="2.65" x2="45.78" y2="41.84" gradientTransform="translate(5.02 64.82) rotate(-8.85) scale(1 -1)" gradientUnits="userSpaceOnUse">
      <stop offset="0" stop-color="#01ae7a" stop-opacity=".5"/>
      <stop offset="1" stop-color="#01ae7a" stop-opacity=".1"/>
    </linearGradient>
    <linearGradient id="linear-gradient2" x1="24.53" y1="45.53" x2="38.16" y2="59.17" gradientTransform="translate(5.02 64.82) rotate(-8.85) scale(1 -1)" gradientUnits="userSpaceOnUse">
      <stop offset="0" stop-color="#01ae7a" stop-opacity=".5"/>
      <stop offset="1" stop-color="#01ae7a" stop-opacity=".1"/>
    </linearGradient>
  </defs>
  <path class="st1" d="M61.8,5.97c2.53.43,4.86,1.31,6.87,2.52l4.01-4.34c.21-.24.58-.25.81-.03.24.21.25.58.03.82l-3.87,4.2c4.67,3.2,7.35,8.25,6.57,13.39l-33.54-5.75c.98-5.11,5.19-8.96,10.66-10.44l-2.26-5.25c-.12-.29,0-.63.3-.76.29-.12.63,0,.76.3l2.34,5.43c2.3-.47,4.78-.52,7.31-.09h0ZM50.79,51.85l-1.43,8.37c-.35,2.07-2.34,3.47-4.41,3.12h0c-2.07-.35-3.47-2.34-3.12-4.41l1.43-8.37-3.16-.54c-1.68-.29-2.81-1.89-2.52-3.57l4.7-27.44,33.59,5.76-4.7,27.44c-.29,1.68-1.89,2.81-3.57,2.52l-3.16-.54-1.43,8.37c-.35,2.07-2.34,3.47-4.41,3.12h0c-2.07-.35-3.47-2.34-3.12-4.41l1.43-8.37-6.11-1.05h0ZM36.16,18.09h0c2.07.35,3.47,2.34,3.12,4.41l-2.58,15.06c-.35,2.07-2.34,3.47-4.41,3.12h0c-2.07-.35-3.47-2.34-3.12-4.41l2.58-15.06c.35-2.07,2.34-3.47,4.41-3.12h0ZM81.93,25.93h0c2.07.35,3.47,2.34,3.12,4.41l-2.58,15.06c-.35,2.07-2.34,3.47-4.41,3.12h0c-2.07-.35-3.47-2.34-3.12-4.41l2.58-15.06c.35-2.07,2.34-3.47,4.41-3.12h0ZM53.67,9.82c1.06.18,1.78,1.2,1.6,2.26s-1.2,1.78-2.26,1.6-1.78-1.2-1.6-2.26,1.2-1.78,2.26-1.6h0ZM68.17,12.3c1.06.18,1.78,1.2,1.6,2.26s-1.2,1.78-2.26,1.6-1.78-1.2-1.6-2.26,1.2-1.78,2.26-1.6h0Z"/>
  <g>
    <path class="st0" d="M42.76,32.51c-1.31-7.89,4.64-12.72,4.91-12.95-4.51-4.81-10.35-4.65-12.41-4.42-4.95.27-9.06,4.36-11.53,4.74s-6.72-1.82-10.74-1.11c-5.31.9-9.73,4.67-11.72,9.85-4.02,10.43,2.28,23.96,8.87,30.89,3.22,3.39,7.02,7.18,11.1,6.38,3.94-.77,5.07-3.41,9.85-4.15,4.78-.74,6.53,1.6,10.71.87,4.25-.74,6.36-4.96,8.38-9.17,2.33-4.88,2.91-9.34,2.94-9.58-.09-.02-8.81-1.9-10.37-11.34h0Z"/>
    <path class="st2" d="M31.26,10.5c1.77-2.99,2.67-6.89,1.7-10.5-3.12.62-6.63,3.19-8.47,6.18-1.66,2.66-2.85,6.68-1.81,10.19,3.55-.27,6.82-2.88,8.59-5.87h0Z"/>
  </g>
</svg>