<?xml version="1.0" encoding="UTF-8"?>
<svg id="Layer_1" xmlns="http://www.w3.org/2000/svg" version="1.1" xmlns:xlink="http://www.w3.org/1999/xlink" viewBox="0 0 64 64">
  <!-- Generator: Adobe Illustrator 30.3.0, SVG Export Plug-In . SVG Version: 2.1.3 Build 182)  -->
  <defs>
    <style>
      .st0 {
        fill: #fff;
      }

      .st1 {
        fill: url(#New_Gradient_Swatch_14);
      }

      .st2 {
        stroke: url(#New_Gradient_Swatch_12);
      }

      .st2, .st3 {
        fill: none;
        stroke-miterlimit: 10;
      }

      .st4 {
        fill: url(#New_Gradient_Swatch_11);
      }

      .st5 {
        fill: url(#New_Gradient_Swatch_1);
      }

      .st3 {
        stroke: url(#New_Gradient_Swatch_13);
      }

      .st6 {
        opacity: .5;
      }
    </style>
    <linearGradient id="New_Gradient_Swatch_1" data-name="New Gradient Swatch 1" x1="12.43" y1="32.57" x2="51.57" y2="-6.57" gradientUnits="userSpaceOnUse">
      <stop offset="0" stop-color="#01ae7a" stop-opacity=".5"/>
      <stop offset="1" stop-color="#01ae7a" stop-opacity=".1"/>
    </linearGradient>
    <linearGradient id="New_Gradient_Swatch_11" data-name="New Gradient Swatch 1" x1="12.43" y1="70.57" x2="51.57" y2="31.43" xlink:href="#New_Gradient_Swatch_1"/>
    <linearGradient id="New_Gradient_Swatch_12" data-name="New Gradient Swatch 1" x1="23.16" y1="40.84" x2="40.84" y2="23.16" xlink:href="#New_Gradient_Swatch_1"/>
    <linearGradient id="New_Gradient_Swatch_13" data-name="New Gradient Swatch 1" x1="37.45" y1="24.22" x2="26.55" y2="39.78" xlink:href="#New_Gradient_Swatch_1"/>
    <linearGradient id="New_Gradient_Swatch_14" data-name="New Gradient Swatch 1" x1="26.75" y1="32" x2="37.25" y2="32" xlink:href="#New_Gradient_Swatch_1"/>
  </defs>
  <g>
    <g>
      <rect class="st5" width="64" height="26" rx="10" ry="10"/>
      <g class="st6">
        <path class="st0" d="M23.5,17.28h-1.79v-8.57h4.91v1.49h-3.12v2.21h2.9v1.49h-2.9v3.38Z"/>
        <path class="st0" d="M32.71,17.28h-3.9v-1.03l1.04-.48v-5.54l-1.04-.48v-1.03h3.9v1.03l-1.04.48v5.54l1.04.48v1.03Z"/>
        <path class="st0" d="M42.28,17.28h-2.11l-1.9-3.08-1.91,3.08h-2.04l2.84-4.42-2.68-4.15h2.04l1.76,2.93,1.73-2.93h2.05l-2.69,4.26,2.89,4.31Z"/>
      </g>
    </g>
    <g>
      <rect class="st4" y="38" width="64" height="26" rx="10" ry="10"/>
      <g class="st6">
        <path class="st0" d="M19.39,46.72c.75,0,1.38.09,1.87.28.5.19.87.47,1.11.83s.37.83.37,1.38c0,.38-.07.72-.2,1.02s-.32.55-.55.76c-.23.21-.5.38-.79.52l2.44,3.78h-2.1l-1.91-3.29h-1.02v3.29h-1.84v-8.57h2.63ZM19.35,48.14h-.76v2.44h.76c.49,0,.86-.1,1.13-.3.26-.2.4-.53.4-.98,0-.26-.05-.47-.16-.64-.11-.17-.27-.3-.5-.38-.22-.09-.51-.13-.86-.13Z"/>
        <path class="st0" d="M30.82,55.28h-4.93v-8.57h4.93v1.49h-3.12v1.88h2.9v1.49h-2.9v2.21h3.12v1.5Z"/>
        <path class="st0" d="M38.86,52.91c0,.5-.12.94-.37,1.32s-.61.67-1.07.87c-.47.2-1.04.31-1.71.31-.3,0-.59-.02-.87-.06-.28-.04-.56-.1-.82-.17-.26-.08-.51-.17-.74-.28v-1.69c.41.18.83.34,1.27.49.44.15.87.22,1.3.22.3,0,.53-.04.71-.12s.31-.19.4-.32c.08-.14.13-.29.13-.47,0-.22-.07-.4-.22-.55-.15-.15-.35-.29-.59-.43-.25-.13-.53-.27-.85-.43-.2-.1-.42-.21-.65-.34-.23-.13-.45-.3-.67-.49-.21-.2-.39-.43-.52-.71-.14-.28-.2-.62-.2-1.01,0-.51.12-.95.35-1.31.24-.36.57-.64,1.01-.83.44-.19.95-.29,1.54-.29.45,0,.87.05,1.28.16.4.1.83.25,1.27.44l-.59,1.42c-.39-.16-.74-.28-1.06-.37-.31-.09-.63-.13-.96-.13-.22,0-.42.04-.58.11-.16.07-.28.17-.37.3s-.13.28-.13.46c0,.2.06.37.18.51.12.14.3.27.54.4.24.13.54.28.9.46.44.21.81.42,1.12.65s.55.49.71.79.25.68.25,1.13Z"/>
        <path class="st0" d="M44.92,55.28h-1.84v-7.04h-2.32v-1.52h6.47v1.52h-2.32v7.04Z"/>
      </g>
    </g>
  </g>
  <circle class="st2" cx="32" cy="32" r="12"/>
  <circle class="st3" cx="32" cy="32" r="9"/>
  <circle class="st1" cx="32" cy="32" r="5.25"/>
</svg>