<?xml version="1.0" encoding="UTF-8"?>
<svg id="Layer_1" xmlns="http://www.w3.org/2000/svg" version="1.1" viewBox="0 0 64 64">
  <!-- Generator: Adobe Illustrator 30.3.0, SVG Export Plug-In . SVG Version: 2.1.3 Build 182)  -->
  <defs>
    <style>
      .st0 {
        fill: #01ae7a;
      }
    </style>
  </defs>
  <path class="st0" d="M26.98,6.01c.55,0,1.06.28,1.36.74l.03.05,2.3,3.93.6.99h2.29l.58-.99,2.3-3.92c.29-.5.82-.79,1.39-.79.29,0,.57.08.82.23l.05.03c.7.45.9,1.45.45,2.23l-4.3,7.33-4.18,7.12-9.07,15.48-.27.49v2.54h15.37c1.08,0,2.42.62,2.87,1.31l.03.07.03.07.04.06c.43.73.67,1.2.79,1.61l-21.42.02H3.59c-.87,0-1.59-.71-1.59-1.58v-.09c.03-.83.8-1.5,1.72-1.5h12.34l.58-.99,13.28-22.6.59-1.01-.59-1.01-4.29-7.32c-.45-.78-.25-1.78.48-2.24.26-.17.56-.26.87-.26M37.49,22.43l10.64,18,.58.98h11.57c.91,0,1.68.68,1.72,1.5.03.9-.67,1.66-1.57,1.69h-.08s-6.29,0-6.29,0l-2,.03v2.54l.28.47,4.61,7.84c.46.77.22,1.79-.53,2.26-.25.15-.54.23-.83.23-.57,0-1.12-.31-1.4-.78l-6.8-11.57-4.22-7.19-5.46-9.33c-1.21-2.04-1.28-4.59-.21-6.67M11.82,49.64c1.22,0,2.09.5,2.58,1.03l-3.88,6.5c-.28.49-.81.79-1.37.79h-.05c-.27,0-.53-.07-.79-.23-.37-.21-.63-.56-.74-.97-.11-.41-.05-.84.15-1.19l3.59-5.93h.52M26.98,4.01c-.67,0-1.35.19-1.96.58-1.66,1.05-2.09,3.25-1.12,4.92l4.3,7.32-13.28,22.6H3.72c-1.94,0-3.64,1.48-3.71,3.43,0,.06,0,.12,0,.18,0,1.98,1.61,3.57,3.59,3.57,0,0,.01,0,.02,0h15.45l23.25-.03h0c.17-.37.26-.78.27-1.19,0-1.27-.42-2.15-1.17-3.42l-.07-.15c-.85-1.45-2.95-2.35-4.63-2.35h-13.37v-.03l9.07-15.48,4.18-7.12,4.3-7.32c.98-1.68.55-3.88-1.1-4.93-.04-.02-.07-.04-.11-.07-.58-.34-1.21-.51-1.84-.51-1.24,0-2.44.63-3.11,1.77l-2.3,3.93h-.03l-2.3-3.93s-.05-.09-.08-.13c-.69-1.07-1.85-1.65-3.04-1.65h0ZM37.73,18.91s-.82.5-1.9,2.4c-1.51,2.76-1.46,6.11.15,8.82l5.45,9.32,4.23,7.2,6.8,11.58c.66,1.1,1.84,1.77,3.12,1.77.66,0,1.31-.18,1.88-.53,1.7-1.06,2.23-3.28,1.2-5l-4.6-7.83v-.03h6.3s0,0,0,0c.05,0,.09,0,.14,0,2.01-.08,3.57-1.76,3.49-3.77-.09-1.92-1.76-3.42-3.71-3.42h-10.43l-12.13-20.51h0ZM11.29,47.64c-.72,0-1.38.38-1.75,1l-3.55,5.9s0,0,0,.01c-1,1.72-.41,3.92,1.31,4.91.54.33,1.16.5,1.79.5.01,0,.02,0,.03,0,0,0,.02,0,.02,0,1.27,0,2.45-.68,3.1-1.78l4.48-7.5c-.52-1.5-2.33-3.05-4.9-3.05h-.52s0,0,0,0h0Z"/>
</svg>