<?xml version="1.0" encoding="UTF-8"?>
<svg id="Layer_1" xmlns="http://www.w3.org/2000/svg" version="1.1" viewBox="0 0 64 64">
  <!-- Generator: Adobe Illustrator 30.3.0, SVG Export Plug-In . SVG Version: 2.1.3 Build 182)  -->
  <defs>
    <style>
      .st0 {
        fill: #01ae7a;
      }
    </style>
  </defs>
  <path class="st0" d="M43.67,17.42c.27,0,.55.01.81.04h.06s.06,0,.06,0c1.74.07,5.79.63,8.92,3.96-2.42,2-6.11,6.11-6.04,12.59.07,8.14,5.3,12.28,8.13,13.93-.64,1.68-1.8,4.32-3.62,6.98-2.78,4.06-4.99,6.93-8.18,6.99h-.16c-1.58,0-2.63-.45-3.97-1.03-1.63-.71-3.49-1.51-6.4-1.51s-4.96.82-6.66,1.54c-1.28.55-2.39,1.02-3.9,1.08-.05,0-.1,0-.15,0-2.98,0-5.7-3.58-8.24-7.24-4.83-6.98-9.26-20.93-3.97-30.11,2.45-4.26,6.88-6.95,11.55-7.02h.13c1.9,0,3.91.8,5.69,1.5,1.66.66,3.22,1.28,4.7,1.28,1.36,0,2.85-.59,4.57-1.26,2.05-.81,4.37-1.72,6.67-1.72M43.67,15.42c-4.61,0-8.89,2.99-11.24,2.99-2.49,0-6.32-2.78-10.38-2.78-.06,0-.12,0-.17,0-5.44.08-10.44,3.16-13.24,8.02-5.64,9.79-1.44,24.3,4.06,32.25,2.64,3.81,5.78,8.1,9.88,8.1.07,0,.15,0,.22,0,4.06-.16,5.59-2.62,10.48-2.62s6.23,2.54,10.38,2.54c.06,0,.13,0,.19,0,4.36-.08,7.13-3.96,9.79-7.86,3.08-4.51,4.35-8.88,4.43-9.11-.09-.03-8.5-3.26-8.59-12.95-.08-8.09,6.61-11.99,6.91-12.18-3.76-5.51-9.62-6.26-11.7-6.35-.34-.03-.67-.05-1.01-.05h0Z"/>
  <path class="st0" d="M42.74,2.36c-.25,2.29-1.26,4.64-2.87,6.59-1.59,1.93-3.84,3.29-5.99,3.7.26-2.54,1.65-4.98,2.95-6.5,1.48-1.73,3.74-3.15,5.91-3.79M44.74,0c-3.22.13-7.12,2.15-9.43,4.85-2.07,2.4-3.89,6.23-3.39,9.9.22.02.43.02.65.02,3.38,0,6.75-2.01,8.85-4.55C43.65,7.51,45.15,3.75,44.74,0h0Z"/>
</svg>