<?xml version="1.0" encoding="UTF-8"?>
<svg id="Layer_1" xmlns="http://www.w3.org/2000/svg" version="1.1" viewBox="0 0 64 64">
  <!-- Generator: Adobe Illustrator 30.3.0, SVG Export Plug-In . SVG Version: 2.1.3 Build 182)  -->
  <defs>
    <style>
      .st0, .st1, .st2 {
        fill: none;
        stroke-miterlimit: 10;
        stroke-width: 2px;
      }

      .st0, .st2 {
        stroke: #01ae7a;
      }

      .st1 {
        stroke: #af0322;
      }

      .st2 {
        opacity: .5;
      }
    </style>
  </defs>
  <rect class="st0" x="1" y="6.5" width="62" height="38"/>
  <rect class="st1" x="7" y="19.5" width="8" height="5"/>
  <line class="st0" x1="6" y1="39.5" x2="27" y2="39.5"/>
  <line class="st0" x1="6" y1="34.5" x2="18" y2="34.5"/>
  <line class="st0" x1="19.33" y1="34.5" x2="31.33" y2="34.5"/>
  <line class="st0" x1="32.67" y1="34.5" x2="44.67" y2="34.5"/>
  <line class="st0" x1="46" y1="34.5" x2="58" y2="34.5"/>
  <circle class="st0" cx="55.18" cy="14.32" r="3.82"/>
  <path class="st2" d="M52,12.21c-.68-1.03-1.85-1.71-3.18-1.71-2.11,0-3.82,1.71-3.82,3.82s1.71,3.82,3.82,3.82c1.3,0,2.44-.65,3.13-1.64"/>
  <line class="st0" x1="57" y1="37.5" x2="57" y2="56.5"/>
  <polyline class="st0" points="52 52.5 57 57.5 62 52.5"/>
</svg>