<?xml version="1.0" encoding="UTF-8"?>
<svg id="Layer_1" xmlns="http://www.w3.org/2000/svg" version="1.1" viewBox="0 0 64 64">
  <!-- Generator: Adobe Illustrator 30.3.0, SVG Export Plug-In . SVG Version: 2.1.3 Build 182)  -->
  <defs>
    <style>
      .st0 {
        fill: #af0322;
      }

      .st1 {
        fill: none;
        stroke: #af0322;
        stroke-miterlimit: 10;
        stroke-width: 2px;
      }

      .st2 {
        opacity: .5;
      }

      .st3 {
        fill: #01ae7a;
      }
    </style>
  </defs>
  <path class="st3" d="M19.48,34.23c.12.35.23.67.34.97l-1.43.97c-.14-.28-.28-.59-.43-.94.44-.36.94-.69,1.52-.99M20.79,31.51c-1.89.64-3.85,1.65-5.17,3.21.81,2.28,1.69,3.68,2.13,4.29l4.54-3.07c-.34-.74-1.02-2.41-1.5-4.43h0Z"/>
  <path class="st3" d="M24.93,11.8l-.96,2.03,1.59.43c.15.04.28.15.34.29.06.15.06.31-.01.45l-1.08,2.11,5.27,4.83-1.98-4.98c-1.53-1.18-2.66-3.01-3.17-5.17h0Z"/>
  <path class="st3" d="M32.05,3.44c2.38,0,4.38,2.72,4.38,5.95s-2.01,5.95-4.38,5.95-4.38-2.72-4.38-5.95,2.01-5.95,4.38-5.95M32.05,1.44c-3.52,0-6.38,3.56-6.38,7.95s2.86,7.95,6.38,7.95,6.38-3.56,6.38-7.95-2.86-7.95-6.38-7.95h0Z"/>
  <path class="st3" d="M39.18,11.8c-.5,2.16-1.63,3.99-3.17,5.17l-1.98,4.98,5.27-4.83-1.08-2.11c-.07-.14-.08-.31-.01-.45.06-.14.19-.25.34-.29l1.59-.43-.96-2.03h0Z"/>
  <path class="st3" d="M21.51,11.9l-.56,1.19c-.32.67-.32,1.45-.01,2.13.2.43.51.79.89,1.05-.4.97-.16,2.1.63,2.82l1.88,1.73c-.13,0-.26,0-.4.02-.27-.25-.61-.45-.99-.57-.23-.07-.47-.1-.71-.1-.83,0-1.61.4-2.08,1.08-.02.03-.05.07-.07.1-1.4.29-2.84.71-4.32,1.23,0,0,0-.02,0-.03,0-4.85,1.93-8.42,5.74-10.65M42.6,11.9c3.81,2.24,5.74,5.8,5.74,10.65,0,7.01-1.49,11.34-2.62,13.61l-1.43-.96c1.23-3.25,2.83-9.41-.34-13.97-.47-.67-1.25-1.08-2.07-1.08-.25,0-.51.04-.75.12-.37.12-.7.31-.97.56-.13,0-.26-.01-.39-.02l1.89-1.73c.78-.72,1.03-1.86.63-2.82.39-.26.7-.62.89-1.05.31-.68.31-1.46-.01-2.13l-.56-1.19M39.4,8.38c.03.33.08.66.08,1,0,.18-.03.35-.04.52l1.91,4.04c.07.14.07.3,0,.44-.06.14-.19.25-.34.29l-1.57.43.97,1.89c.11.21.06.47-.11.63l-7.25,6.66c-.1.09-.23.14-.35.14-.1,0-.21-.03-.3-.09-.2-.14-.28-.4-.19-.63l2.34-5.87c-.78.34-1.61.56-2.49.56s-1.71-.22-2.49-.56l2.34,5.87c.09.23.01.49-.19.63-.09.06-.19.09-.3.09-.13,0-.26-.05-.35-.14l-7.25-6.66c-.17-.16-.22-.42-.11-.63l.97-1.89-1.57-.43c-.15-.04-.27-.15-.34-.29-.06-.14-.06-.3,0-.44l1.91-4.04c0-.18-.04-.34-.04-.52,0-.34.05-.67.08-1-5.15,1.54-10.94,5.25-10.94,14.17,0,1,.05,1.97.11,2.93,2.97-1.31,5.48-2,7.48-2.35.14-.26.28-.51.44-.75.1-.14.27-.22.44-.22.05,0,.1,0,.15.02.22.07.37.27.37.5,0,.08,0,.16,0,.25.82-.09,1.53-.12,2.11-.12,1.16,0,1.82.13,1.9.15.26.06.43.29.41.55l-.45,6.41c-.02.26-.23.47-.49.49-.02,0-.39.03-.97.1,1.65,1.92,4.02,2.98,6.79,2.98s5.13-1.05,6.78-2.97c-.64-.08-1.05-.11-1.06-.11-.26-.01-.48-.22-.49-.49l-.45-6.41c-.02-.26.16-.49.41-.55.05,0,.69-.14,1.87-.14.61,0,1.36.03,2.24.14,0-.09,0-.17,0-.26,0-.23.15-.43.37-.5.05-.02.1-.02.16-.02.17,0,.33.08.43.22,3.25,4.65.34,11.75-.49,13.56l4.54,3.06c.94-1.32,3.98-6.34,3.98-16.46,0-8.92-5.79-12.63-10.94-14.17h0ZM28.79,30.18c-.15,0-.3-.07-.39-.18-.1-.11-.15-.26-.13-.41l.6-4.49c.03-.26.26-.45.52-.45h5.33c.26,0,.49.19.52.45l.6,4.49c.02.15-.03.3-.13.41-.1.11-.24.18-.39.18h-6.52Z"/>
  <g class="st2">
    <path class="st3" d="M40.05,25.9c.17.01.34.03.52.04.12.54.18,1.14.18,1.79-.2-.04-.39-.07-.57-.1l-.12-1.72M39.07,23.87c-.5,0-.89.03-1.16.05l.39,5.47c.76.07,2.39.29,4.22.81.35-1.99.38-4.2-.44-6.08-1.24-.19-2.25-.25-3.01-.25h0Z"/>
  </g>
  <g class="st2">
    <path class="st3" d="M52.78,30.22c.12.07.25.14.37.21,4.2,2.42,6.33,5.88,6.35,10.3l-.75-1.08c-.43-.62-1.1-1.01-1.85-1.08h-.05s-.05,0-.05,0h-.07s-.04,0-.04,0c-.4,0-.79.09-1.14.26-.48-.62-1.21-.99-2-.99-.27,0-.53.04-.76.12l-2.77.87c.06-.12.13-.25.19-.38.47-.08.92-.29,1.28-.63.82-.75,1.05-1.93.58-2.93-.08-.18-.17-.35-.27-.52.39-1.3.71-2.69.96-4.15M27.93,48.81c1.91,2.35,5.33,5.75,9.65,6.54l.16.09h.41c.46.06.88.09,1.3.09.25,0,.49-.01.74-.03,1.1-.09,2.01-.88,2.25-1.97.13-.61.04-1.23-.25-1.75.1-.16.19-.32.28-.47l.73,3.28c.23,1.04,1.09,1.82,2.13,1.95.03.46.19.91.46,1.3.43.61,1.11.99,1.85,1.05l1.31.11c-1.83,1.04-3.71,1.57-5.61,1.57-2.1,0-4.28-.65-6.49-1.92-6.07-3.5-9.08-6.97-10.48-9.08l1.54-.75M51.17,27.15c-.3,3.11-.89,5.6-1.53,7.52.24.35.47.7.65,1.08.1.21.05.45-.12.61-.1.09-.23.14-.35.14-.09,0-.18-.02-.26-.07-.16-.09-.31-.17-.47-.25-1.07,2.6-2.12,3.81-2.21,3.91-.1.11-.25.17-.39.17-.1,0-.2-.03-.29-.09l-5.32-3.59c-.22-.15-.29-.44-.18-.67,0-.02.21-.42.48-1.08-2.34.54-4.28,1.97-5.61,4.27-1.26,2.19-1.56,4.47-.98,6.67.18-.25.28-.41.29-.41.1-.15.27-.24.44-.24.08,0,.16.02.23.05l5.77,2.81c.23.11.35.38.27.63-.02.07-.48,1.44-2.01,3.5.22.14.44.29.68.43.2.11.3.34.25.57-.05.22-.24.39-.47.41-.19.02-.38.02-.57.02-.4,0-.8-.03-1.19-.09,0,0,0,0,0,0,0,0-.01,0-.02,0-4.85-.71-8.68-5.69-9.71-7.14l-4.93,2.4c.67,1.48,3.5,6.62,12.26,11.68,2.7,1.56,5.21,2.19,7.49,2.19,4.23,0,7.7-2.16,10.24-4.56-.3-.14-.6-.28-.89-.44-.16-.09-.28-.2-.43-.3l-4.45-.36c-.15-.01-.3-.09-.39-.22-.09-.13-.12-.29-.08-.44l.42-1.58-2.12-.1c-.24-.01-.44-.18-.49-.41l-2.14-9.61c-.05-.24.07-.48.29-.59.07-.03.15-.05.23-.05.16,0,.31.07.41.2l3.91,4.96c.1-.85.32-1.67.76-2.43.44-.76,1.04-1.37,1.73-1.88l-6.25-.91c-.24-.04-.43-.23-.45-.48-.02-.24.13-.47.36-.54l9.39-2.95c.05-.02.11-.03.16-.03.17,0,.34.09.44.24l1.15,1.78,1.16-1.15c.11-.1.25-.15.39-.15,0,0,.02,0,.03,0,.15.01.3.1.38.22l2.54,3.68c.16.08.32.13.47.22.29.17.55.38.83.57,1.24-5.23.92-12.1-6.8-16.56-.99-.57-1.99-1.07-2.98-1.56h0ZM41.42,46.06c-.07,0-.14-.01-.2-.04l-4.19-1.73c-.14-.06-.25-.17-.3-.32-.05-.14-.03-.3.04-.43l3.26-5.65c.07-.13.2-.22.35-.25.03,0,.07-.01.1-.01.11,0,.23.04.32.11l3.59,2.76c.21.16.27.45.13.68l-2.66,4.61c-.1.17-.27.26-.45.26h0Z"/>
  </g>
  <g class="st2">
    <path class="st3" d="M53.34,40.98l-6.82,2.15,5.3.77c.96-.4,2.04-.6,3.15-.6.95,0,1.93.15,2.91.44l-1.27-1.84-1.17,1.16c-.1.1-.23.15-.37.15-.02,0-.04,0-.06,0-.16-.02-.3-.1-.38-.24l-1.28-1.99h0Z"/>
  </g>
  <g class="st2">
    <path class="st3" d="M55,46.32c1.22,0,2.46.35,3.61,1.01,1.46.84,2.55,2.07,3.08,3.46.46,1.21.42,2.38-.12,3.31-.54.93-1.53,1.55-2.81,1.76-.3.05-.62.07-.94.07-1.21,0-2.45-.35-3.6-1.01-2.79-1.61-4.15-4.71-2.96-6.77.66-1.15,2.06-1.83,3.74-1.83M55,44.32c-2.32,0-4.4.98-5.47,2.83-1.76,3.05-.1,7.31,3.69,9.5,1.46.84,3.05,1.28,4.6,1.28.42,0,.84-.03,1.26-.1,1.88-.3,3.38-1.28,4.22-2.73.84-1.46.93-3.24.26-5.02-.69-1.82-2.09-3.41-3.95-4.48-1.49-.86-3.1-1.28-4.61-1.28h0Z"/>
  </g>
  <g class="st2">
    <path class="st3" d="M44.55,46.55l1.55,6.98,2.37.12c.16,0,.3.09.4.21.09.13.12.29.08.44l-.42,1.6,2.23.18c-1.62-1.52-2.64-3.41-2.89-5.33l-3.32-4.2h0Z"/>
  </g>
  <path class="st1" d="M35.47,46.3c-.43.61-1.39,1.85-2.7,3.14,1.47,1.3,3.29,2.5,5.27,2.89,1.37-1.68,2.07-3,2.36-3.64l-4.93-2.4Z"/>
  <path class="st1" d="M12.18,43.9l5.3-.77-6.82-2.15-1.28,1.99c-.09.13-.23.22-.38.24-.16.02-.31-.04-.43-.15l-1.17-1.16-1.28,1.85c2.12-.65,4.28-.58,6.06.16Z"/>
  <path class="st0" d="M9,46.32c1.68,0,3.07.68,3.73,1.83,1.19,2.06-.17,5.16-2.96,6.77-1.15.66-2.39,1.01-3.59,1.01-.32,0-.63-.03-.94-.07-1.27-.21-2.27-.83-2.81-1.76-.54-.93-.58-2.1-.12-3.31.53-1.39,1.62-2.62,3.08-3.46,1.14-.66,2.39-1.01,3.61-1.01M9,44.32c-1.51,0-3.11.41-4.61,1.28-1.86,1.07-3.26,2.66-3.95,4.48-.68,1.78-.58,3.56.26,5.02.84,1.46,2.34,2.43,4.22,2.73.41.07.84.1,1.26.1,1.55,0,3.14-.44,4.59-1.28,3.79-2.19,5.45-6.45,3.69-9.5-1.07-1.85-3.15-2.83-5.47-2.83h0Z"/>
  <path class="st1" d="M15.54,53.65l2.37-.12,1.55-6.98-3.32,4.2c-.25,1.91-1.27,3.81-2.89,5.33l2.23-.18-.42-1.6c-.04-.15,0-.32.08-.44.09-.13.24-.21.4-.21Z"/>
  <path class="st1" d="M25.52,53.46c-.3.04-.61.07-.91.07-.21,0-.42,0-.63-.03-.23-.02-.42-.18-.47-.41-.05-.22.05-.45.25-.57.24-.14.45-.28.67-.43-1.49-2.02-1.96-3.38-2-3.5-.08-.25.03-.52.27-.63l5.77-2.81c.24-.11.53-.04.67.18,0,.01.11.17.29.41.58-2.2.28-4.49-.98-6.67-1.31-2.26-3.21-3.67-5.49-4.24.27.64.46,1.04.47,1.05.12.24.04.52-.18.67l-5.32,3.59c-.09.06-.19.09-.29.09-.14,0-.29-.06-.39-.17-.05-.06-1.13-1.27-2.22-3.96-.19.1-.38.19-.56.3-.2.11-.45.09-.62-.07-.17-.15-.22-.4-.12-.61.23-.49.52-.93.83-1.34,0-.01.01-.02.02-.03,2.99-3.95,9.35-4.82,11.14-4.98l.39-5.47c-1.61-.16-7.49-.28-16.25,4.78-7.72,4.46-8.05,11.32-6.8,16.56.27-.19.53-.4.83-.57.15-.09.32-.14.47-.22l2.54-3.68c.09-.13.23-.21.38-.22.15,0,.31.04.42.15l1.16,1.15,1.15-1.78c.13-.2.37-.29.6-.22l9.39,2.95c.23.07.38.3.36.54-.02.24-.2.44-.45.48l-6.25.91c.68.51,1.29,1.12,1.72,1.88.44.76.66,1.59.76,2.43l3.91-4.96c.15-.19.41-.26.64-.15.22.1.34.35.29.59l-2.14,9.61c-.05.23-.25.4-.49.41l-2.12.1.42,1.58c.04.15.01.31-.08.44-.09.13-.23.21-.39.22l-4.45.36c-.15.1-.28.21-.43.3-.29.17-.59.3-.89.44,3.91,3.69,10.01,6.82,17.72,2.37,1.03-.6,2.01-1.22,2.95-1.86-2.48-1.81-4.28-3.55-5.57-5.05ZM19.47,41.19c-.13-.23-.07-.52.13-.68l3.59-2.76c.12-.09.27-.13.42-.1.15.03.28.12.35.25l3.26,5.65c.08.13.09.29.04.43-.05.14-.16.26-.3.32l-4.19,1.73c-.06.03-.13.04-.2.04-.18,0-.36-.1-.45-.26l-2.66-4.61Z"/>
</svg>