<?xml version="1.0" encoding="UTF-8"?>
<svg id="Layer_1" xmlns="http://www.w3.org/2000/svg" version="1.1" viewBox="0 0 64 64">
  <!-- Generator: Adobe Illustrator 30.3.0, SVG Export Plug-In . SVG Version: 2.1.3 Build 182)  -->
  <defs>
    <style>
      .st0 {
        stroke-linejoin: round;
      }

      .st0, .st1 {
        fill: none;
        fill-rule: evenodd;
        stroke: #01ae7a;
        stroke-width: 2px;
      }

      .st1 {
        stroke-miterlimit: 10;
      }
    </style>
  </defs>
  <g id="soical">
    <g id="social">
      <g id="icon">
        <g id="play_store">
          <path id="Mask" class="st1" d="M39.05,18.87L6.56,1.13c-1.69,0-3.06,1.37-3.06,3.06v55.64c0,1.69,1.37,3.06,3.06,3.06,0,0,17.81-9.79,32.48-17.82"/>
          <path id="Mask1" data-name="Mask" class="st0" d="M45.64,22.47l12.41,6.78c5.52,2.97,0,5.5,0,5.5,0-.17-51.48,28.12-51.48,28.12-.1,0-.2,0-.29-.01L45.64,22.47Z"/>
          <path id="Mask2" data-name="Mask" class="st0" d="M6.57,1.13l51.48,28.12c5.52,2.97,0,5.5,0,5.5,0-.05-5.18,2.76-12.26,6.62L6.57,1.13Z"/>
          <path id="Mask3" data-name="Mask" class="st1" d="M45.71,22.51l12.34,6.74c5.52,2.97,0,5.5,0,5.5,0-.05-5.18,2.76-12.26,6.62l-9.24-9.48,9.15-9.39Z"/>
        </g>
      </g>
    </g>
  </g>
</svg>