<?xml version="1.0" encoding="UTF-8"?>
<svg id="Layer_1" xmlns="http://www.w3.org/2000/svg" version="1.1" xmlns:xlink="http://www.w3.org/1999/xlink" viewBox="0 0 64 64">
  <!-- Generator: Adobe Illustrator 30.3.0, SVG Export Plug-In . SVG Version: 2.1.3 Build 182)  -->
  <defs>
    <style>
      .st0, .st1, .st2, .st3 {
        fill: none;
      }

      .st0, .st2, .st3 {
        stroke-miterlimit: 10;
        stroke-width: 2px;
      }

      .st0, .st3 {
        stroke: #01ae7a;
      }

      .st2 {
        stroke: #af0322;
      }

      .st2, .st3 {
        fill-rule: evenodd;
      }

      .st4 {
        clip-path: url(#clippath);
      }
    </style>
    <clipPath id="clippath">
      <rect class="st1" x="5.49" y="-1" width="27.02" height="66"/>
    </clipPath>
  </defs>
  <path class="st3" d="M32.51,1L6.51,13v18.1c0,12.67,7.58,24.1,19.24,29.04l6.76,2.86,6.76-2.86c11.66-4.94,19.24-16.37,19.24-29.04V13L32.51,1Z"/>
  <g class="st4">
    <path class="st2" d="M32.51,1L6.51,13v18.1c0,12.67,7.58,24.1,19.24,29.04l6.76,2.86,6.76-2.86c11.66-4.94,19.24-16.37,19.24-29.04V13L32.51,1Z"/>
  </g>
  <rect class="st0" x="22.51" y="27" width="20" height="19"/>
  <path class="st3" d="M26.51,27v-5c0-3.31,2.69-6,6-6h0c3.31,0,6,2.69,6,6v5"/>
  <path class="st2" d="M34.51,35c0-1.1-.9-2-2-2s-2,.9-2,2c0,.84.52,1.56,1.26,1.85l-1.26,3.15h4l-1.26-3.15c.74-.29,1.26-1.01,1.26-1.85Z"/>
  <path class="st3" d="M47.51,32"/>
</svg>