<?xml version="1.0" encoding="UTF-8"?>
<svg id="Layer_1" xmlns="http://www.w3.org/2000/svg" version="1.1" xmlns:xlink="http://www.w3.org/1999/xlink" viewBox="0 0 64 64">
  <!-- Generator: Adobe Illustrator 30.3.0, SVG Export Plug-In . SVG Version: 2.1.3 Build 182)  -->
  <defs>
    <style>
      .st0, .st1, .st2, .st3 {
        fill: none;
      }

      .st0, .st2, .st3 {
        stroke-miterlimit: 10;
        stroke-width: 2px;
      }

      .st0, .st3 {
        stroke: #01ae7a;
      }

      .st2 {
        stroke: #af0322;
      }

      .st2, .st3 {
        fill-rule: evenodd;
      }

      .st4 {
        clip-path: url(#clippath);
      }
    </style>
    <clipPath id="clippath">
      <rect class="st1" y="25" width="16" height="39"/>
    </clipPath>
  </defs>
  <polyline class="st0" points="16 63 63 63 63 11 53 1 16 1 16 27"/>
  <polyline class="st0" points="63 11 53 11 53 1"/>
  <g>
    <path class="st3" d="M16,26.93l-15,6.94v10.47c0,7.32,4.37,13.94,11.1,16.79l3.9,1.65,3.9-1.65c6.73-2.85,11.1-9.47,11.1-16.79v-10.47l-15-6.94Z"/>
    <polyline class="st3" points="10.66 45 14.13 48.47 21.34 41.24"/>
    <g class="st4">
      <path class="st2" d="M16,26.93l-15,6.94v10.47c0,7.32,4.37,13.94,11.1,16.79l3.9,1.65,3.9-1.65c6.73-2.85,11.1-9.47,11.1-16.79v-10.47l-15-6.94Z"/>
    </g>
  </g>
  <line class="st0" x1="56" y1="15" x2="23" y2="15"/>
  <line class="st0" x1="56" y1="21.27" x2="23" y2="21.27"/>
  <line class="st0" x1="56" y1="27.5" x2="35" y2="27.5"/>
  <line class="st0" x1="56" y1="34" x2="43" y2="34"/>
</svg>