<?xml version="1.0" encoding="UTF-8"?>
<svg id="Layer_1" xmlns="http://www.w3.org/2000/svg" version="1.1" xmlns:xlink="http://www.w3.org/1999/xlink" viewBox="0 0 64 64">
  <!-- Generator: Adobe Illustrator 30.3.0, SVG Export Plug-In . SVG Version: 2.1.3 Build 182)  -->
  <defs>
    <style>
      .st0 {
        stroke: #01ae7a;
      }

      .st0, .st1, .st2 {
        fill: none;
      }

      .st0, .st2 {
        stroke-miterlimit: 10;
        stroke-width: 2px;
      }

      .st3 {
        clip-path: url(#clippath-1);
      }

      .st4 {
        clip-path: url(#clippath-3);
      }

      .st2 {
        stroke: #af0322;
      }

      .st5 {
        clip-path: url(#clippath-2);
      }

      .st6 {
        clip-path: url(#clippath);
      }

      .st7 {
        fill: #01ae7a;
      }
    </style>
    <clipPath id="clippath">
      <rect class="st1" x="1227" y="37.72" width="64" height="18"/>
    </clipPath>
    <clipPath id="clippath-1">
      <rect class="st1" x="1227" y="83.72" width="64" height="18" transform="translate(2518 185.43) rotate(180)"/>
    </clipPath>
    <clipPath id="clippath-2">
      <rect class="st1" y="0" width="64" height="18"/>
    </clipPath>
    <clipPath id="clippath-3">
      <rect class="st1" y="46" width="64" height="18" transform="translate(64 110) rotate(180)"/>
    </clipPath>
  </defs>
  <g>
    <path class="st7" d="M1247.9,76.18h-8.68v-1.48l3.33-3.38c.65-.66,1.19-1.24,1.63-1.73.43-.49.76-.96.98-1.41s.33-.94.33-1.47c0-.66-.19-1.16-.58-1.49-.39-.33-.89-.5-1.5-.5s-1.12.11-1.59.33c-.47.22-.96.53-1.46.93l-1.03-1.28c.35-.3.73-.57,1.13-.81.4-.24.86-.43,1.36-.58.5-.14,1.05-.22,1.65-.22.82,0,1.53.14,2.12.42s1.05.68,1.37,1.2c.32.52.48,1.13.48,1.83s-.14,1.33-.42,1.92-.67,1.17-1.18,1.75c-.51.57-1.1,1.19-1.79,1.85l-2.41,2.33v.09h6.28v1.7Z"/>
    <path class="st7" d="M1258.26,69.71c0,1.05-.08,1.98-.24,2.8-.16.82-.42,1.52-.76,2.09-.34.57-.79,1.01-1.36,1.31-.56.3-1.23.45-2.02.45-.99,0-1.8-.26-2.44-.8-.64-.53-1.12-1.29-1.43-2.29-.31-1-.47-2.19-.47-3.57s.14-2.59.43-3.58c.28-.99.74-1.75,1.38-2.27s1.48-.79,2.53-.79c.99,0,1.8.26,2.45.79.64.52,1.13,1.28,1.45,2.27s.48,2.18.48,3.58ZM1251.46,69.71c0,1.12.08,2.06.24,2.8.16.75.41,1.31.77,1.68s.83.56,1.42.56,1.06-.18,1.42-.55c.36-.37.62-.93.78-1.68.16-.75.24-1.69.24-2.81s-.08-2.05-.24-2.79c-.16-.74-.42-1.3-.78-1.67-.36-.37-.83-.56-1.42-.56s-1.06.19-1.42.56c-.36.37-.61.93-.77,1.67-.16.74-.24,1.67-.24,2.79Z"/>
    <path class="st7" d="M1265.8,76.18h-1.9v-8.57c0-.3,0-.58,0-.84,0-.26.01-.51.03-.76.01-.25.02-.48.04-.71-.16.16-.32.31-.49.45s-.36.31-.58.51l-1.41,1.14-.98-1.23,3.69-2.89h1.59v12.91Z"/>
    <path class="st7" d="M1274.52,68.17c.86,0,1.6.15,2.24.45.64.3,1.14.74,1.49,1.3.36.57.53,1.26.53,2.08,0,.9-.19,1.68-.58,2.33s-.94,1.15-1.67,1.5-1.62.52-2.67.52c-.66,0-1.29-.06-1.88-.18-.59-.12-1.09-.29-1.5-.52v-1.75c.43.25.96.46,1.58.61.62.16,1.21.24,1.78.24.62,0,1.14-.09,1.58-.28.44-.19.78-.47,1.03-.85s.37-.86.37-1.44c0-.78-.24-1.38-.73-1.8s-1.26-.62-2.31-.62c-.34,0-.71.03-1.13.09-.42.06-.75.12-1,.18l-.89-.52.49-6.24h6.64v1.7h-4.97l-.29,3.38c.21-.04.46-.08.78-.12.31-.04.68-.06,1.1-.06Z"/>
  </g>
  <g>
    <line class="st0" x1="1291" y1="58.72" x2="1227" y2="58.72"/>
    <line class="st0" x1="1291" y1="80.72" x2="1227" y2="80.72"/>
  </g>
  <g class="st6">
    <g>
      <circle class="st0" cx="1259" cy="69.72" r="29"/>
      <circle class="st2" cx="1259" cy="69.72" r="23"/>
    </g>
  </g>
  <g class="st3">
    <g>
      <circle class="st0" cx="1259" cy="69.72" r="29"/>
      <circle class="st2" cx="1259" cy="69.72" r="23"/>
    </g>
  </g>
  <g>
    <g>
      <path class="st7" d="M20.9,38.47h-8.68v-1.48l3.33-3.38c.65-.66,1.19-1.24,1.63-1.73.43-.49.76-.96.98-1.41s.33-.94.33-1.47c0-.66-.19-1.16-.58-1.49-.39-.33-.89-.5-1.5-.5s-1.12.11-1.59.33c-.47.22-.96.53-1.46.93l-1.03-1.28c.35-.3.73-.57,1.13-.81.4-.24.86-.43,1.36-.58.5-.14,1.05-.22,1.65-.22.82,0,1.53.14,2.12.42s1.05.68,1.37,1.2c.32.52.48,1.13.48,1.83s-.14,1.33-.42,1.92-.67,1.17-1.18,1.75c-.51.57-1.1,1.19-1.79,1.85l-2.41,2.33v.09h6.28v1.7Z"/>
      <path class="st7" d="M31.26,31.99c0,1.05-.08,1.98-.24,2.8-.16.82-.42,1.52-.76,2.09-.34.57-.79,1.01-1.36,1.31-.56.3-1.23.45-2.02.45-.99,0-1.8-.26-2.44-.8-.64-.53-1.12-1.29-1.43-2.29-.31-1-.47-2.19-.47-3.57s.14-2.59.43-3.58c.28-.99.74-1.75,1.38-2.27s1.48-.79,2.53-.79c.99,0,1.8.26,2.45.79.64.52,1.13,1.28,1.45,2.27s.48,2.18.48,3.58ZM24.46,31.99c0,1.12.08,2.06.24,2.8.16.75.41,1.31.77,1.68s.83.56,1.42.56,1.06-.18,1.42-.55c.36-.37.62-.93.78-1.68.16-.75.24-1.69.24-2.81s-.08-2.05-.24-2.79c-.16-.74-.42-1.3-.78-1.67-.36-.37-.83-.56-1.42-.56s-1.06.19-1.42.56c-.36.37-.61.93-.77,1.67-.16.74-.24,1.67-.24,2.79Z"/>
      <path class="st7" d="M38.8,38.47h-1.9v-8.57c0-.3,0-.58,0-.84,0-.26.01-.51.03-.76.01-.25.02-.48.04-.71-.16.16-.32.31-.49.45s-.36.31-.58.51l-1.41,1.14-.98-1.23,3.69-2.89h1.59v12.91Z"/>
      <path class="st7" d="M47.52,30.45c.86,0,1.6.15,2.24.45.64.3,1.14.74,1.49,1.3.36.57.53,1.26.53,2.08,0,.9-.19,1.68-.58,2.33s-.94,1.15-1.67,1.5-1.62.52-2.67.52c-.66,0-1.29-.06-1.88-.18-.59-.12-1.09-.29-1.5-.52v-1.75c.43.25.96.46,1.58.61.62.16,1.21.24,1.78.24.62,0,1.14-.09,1.58-.28.44-.19.78-.47,1.03-.85s.37-.86.37-1.44c0-.78-.24-1.38-.73-1.8s-1.26-.62-2.31-.62c-.34,0-.71.03-1.13.09-.42.06-.75.12-1,.18l-.89-.52.49-6.24h6.64v1.7h-4.97l-.29,3.38c.21-.04.46-.08.78-.12.31-.04.68-.06,1.1-.06Z"/>
    </g>
    <g>
      <line class="st0" x1="64" y1="21" y2="21"/>
      <line class="st0" x1="64" y1="43" y2="43"/>
    </g>
    <g class="st5">
      <g>
        <circle class="st0" cx="32" cy="32" r="29"/>
        <circle class="st2" cx="32" cy="32" r="23"/>
      </g>
    </g>
    <g class="st4">
      <g>
        <circle class="st0" cx="32" cy="32" r="29"/>
        <circle class="st2" cx="32" cy="32" r="23"/>
      </g>
    </g>
  </g>
</svg>