<?xml version="1.0" encoding="UTF-8"?>
<svg id="Layer_1" xmlns="http://www.w3.org/2000/svg" version="1.1" viewBox="0 0 64 64">
  <!-- Generator: Adobe Illustrator 30.3.0, SVG Export Plug-In . SVG Version: 2.1.3 Build 182)  -->
  <defs>
    <style>
      .st0 {
        fill: #af0322;
      }

      .st1 {
        stroke: #01ae7a;
      }

      .st1, .st2 {
        fill: none;
        stroke-miterlimit: 10;
        stroke-width: 2px;
      }

      .st2 {
        stroke: #af0322;
      }

      .st3 {
        opacity: .5;
      }
    </style>
  </defs>
  <polygon class="st0" points="30 33 31 36 30 47 32 51 34 47 33 36 34 33 30 33"/>
  <g>
    <path class="st1" d="M32,33h0c8.28,0,15,6.72,15,15v9h-30v-9c0-8.28,6.72-15,15-15Z"/>
    <circle class="st1" cx="32" cy="21" r="8"/>
  </g>
  <g class="st3">
    <path class="st1" d="M28,33c-2.74-3.64-7.09-6-12-6h0c-8.28,0-15,6.72-15,15v9h16"/>
    <circle class="st1" cx="16" cy="15" r="8"/>
    <polyline class="st1" points="11 28 16 31 21 28"/>
    <line class="st1" x1="16" y1="31" x2="16" y2="51"/>
    <line class="st1" x1="51" y1="37" x2="57" y2="37"/>
    <line class="st2" x1="55" y1="36" x2="55" y2="35"/>
  </g>
  <g class="st3">
    <path class="st1" d="M47,51h16v-9c0-8.28-6.72-15-15-15h0c-4.91,0-9.26,2.36-12,6"/>
    <circle class="st1" cx="48" cy="15" r="8"/>
  </g>
</svg>