<?xml version="1.0" encoding="UTF-8"?>
<svg id="Layer_1" xmlns="http://www.w3.org/2000/svg" version="1.1" viewBox="0 0 512 512">
  <!-- Generator: Adobe Illustrator 30.3.0, SVG Export Plug-In . SVG Version: 2.1.3 Build 182)  -->
  <defs>
    <style>
      .st0 {
        fill: #fff;
      }

      .st1 {
        fill: #e60028;
      }
    </style>
  </defs>
  <rect width="512" height="512"/>
  <g>
    <path class="st0" d="M168.01,235.31H43.09v-31.74h124.92c3.42,0,6.2-2.78,6.2-6.19V68.19h31.79v129.19c0,20.95-17.09,37.93-37.99,37.93Z"/>
    <polygon class="st0" points="261.46 235.31 345.14 108.27 428.9 235.31 466.96 235.31 356.82 68.19 333.54 68.19 223.4 235.31 261.46 235.31"/>
    <polygon class="st1" points="206.08 308.43 206.08 276.69 43.09 276.69 43.09 443.81 74.88 443.81 74.88 379.85 206.08 379.85 206.08 348.11 74.88 348.11 74.88 308.43 206.08 308.43"/>
    <g>
      <polygon class="st1" points="305.17 348.11 216.25 276.69 266.95 276.69 330.52 327.79 305.17 348.11"/>
      <polygon class="st1" points="417.93 276.69 468.63 276.69 367.79 357.71 474.91 443.81 424.21 443.81 342.44 378.1 260.75 443.81 209.97 443.81 417.93 276.69"/>
    </g>
  </g>
</svg>