<?xml version="1.0" encoding="UTF-8"?>
<svg id="Layer_1" xmlns="http://www.w3.org/2000/svg" version="1.1" viewBox="0 0 108.59 21.06">
  <!-- Generator: Adobe Illustrator 30.3.0, SVG Export Plug-In . SVG Version: 2.1.3 Build 182)  -->
  <defs>
    <style>
      .st0 {
        fill: #fff;
      }

      .st1 {
        fill: #e60028;
      }
    </style>
  </defs>
  <path class="st0" d="M15.72,21.06H0v-4h15.72c.43,0,.78-.35.78-.78V0h4v16.28c0,2.64-2.15,4.78-4.78,4.78Z"/>
  <polygon class="st1" points="74.76 4 74.76 0 54.25 0 54.25 21.06 58.25 21.06 58.25 13 74.76 13 74.76 9 58.25 9 58.25 4 74.76 4"/>
  <polygon class="st0" points="25.76 21.06 36.29 5.05 46.83 21.06 51.62 21.06 37.76 0 34.83 0 20.97 21.06 25.76 21.06"/>
  <g>
    <polygon class="st1" points="87.23 9 76.04 0 82.42 0 90.42 6.44 87.23 9"/>
    <polygon class="st1" points="101.42 0 107.8 0 95.11 10.21 108.59 21.06 102.21 21.06 91.92 12.78 81.64 21.06 75.25 21.06 101.42 0"/>
  </g>
</svg>