<?xml version="1.0" encoding="UTF-8"?>
<svg id="Layer_1" xmlns="http://www.w3.org/2000/svg" version="1.1" xmlns:xlink="http://www.w3.org/1999/xlink" viewBox="0 0 64 61.13">
  <!-- Generator: Adobe Illustrator 30.3.0, SVG Export Plug-In . SVG Version: 2.1.3 Build 182)  -->
  <defs>
    <style>
      .st0 {
        fill: url(#New_Gradient_Swatch_1);
      }
    </style>
    <linearGradient id="New_Gradient_Swatch_1" data-name="New Gradient Swatch 1" x1="9.29" y1="63.04" x2="53.67" y2="18.66" gradientTransform="translate(.54)" gradientUnits="userSpaceOnUse">
      <stop offset="0" stop-color="#01ae7a" stop-opacity=".5"/>
      <stop offset="1" stop-color="#01ae7a" stop-opacity=".1"/>
    </linearGradient>
  </defs>
  <g>
    <g>
      <path class="st0" d="M15.62,33.29c.81,2.28,1.69,3.68,2.13,4.29l4.54-3.07c-.34-.74-1.02-2.41-1.5-4.43-1.89.64-3.85,1.65-5.17,3.21Z"/>
      <path class="st0" d="M25.56,12.82c.15.04.28.15.34.29.06.15.06.31-.01.45l-1.08,2.11,5.27,4.83-1.98-4.98c-1.53-1.18-2.66-3.01-3.17-5.17l-.96,2.03,1.59.43Z"/>
      <path class="st0" d="M32.05,15.89c3.52,0,6.38-3.56,6.38-7.95s-2.86-7.95-6.38-7.95-6.38,3.56-6.38,7.95,2.86,7.95,6.38,7.95Z"/>
      <path class="st0" d="M36.01,15.53l-1.98,4.98,5.27-4.83-1.08-2.11c-.07-.14-.08-.31-.01-.45.06-.14.19-.25.34-.29l1.59-.43-.96-2.03c-.5,2.16-1.63,3.99-3.17,5.17Z"/>
      <path class="st0" d="M21.35,21.7c.14-.26.28-.51.44-.75.13-.19.37-.26.59-.2.22.07.37.27.37.5,0,.08,0,.16,0,.25,2.48-.28,3.88,0,4.01.02.26.06.43.29.41.55l-.45,6.41c-.02.26-.23.47-.49.49-.02,0-.39.03-.97.1,1.65,1.92,4.02,2.98,6.79,2.98s5.13-1.05,6.78-2.97c-.64-.08-1.05-.11-1.06-.11-.26-.01-.48-.22-.49-.49l-.45-6.41c-.02-.26.16-.49.41-.55.07-.02,1.51-.31,4.11,0,0-.09,0-.17,0-.26,0-.23.15-.43.37-.5.22-.07.46.01.59.2,3.25,4.65.34,11.75-.49,13.56l4.54,3.06c.94-1.32,3.98-6.34,3.98-16.46,0-8.92-5.79-12.63-10.94-14.17.03.33.08.66.08,1,0,.18-.03.35-.04.52l1.91,4.04c.07.14.07.3,0,.44s-.19.25-.34.29l-1.57.43.97,1.89c.11.21.06.47-.11.63l-7.25,6.66c-.1.09-.23.14-.35.14-.1,0-.21-.03-.3-.09-.2-.14-.28-.4-.19-.63l2.34-5.87c-.78.34-1.61.56-2.49.56s-1.71-.22-2.49-.56l2.34,5.87c.09.23.01.49-.19.63-.09.06-.19.09-.3.09-.13,0-.26-.05-.35-.14l-7.25-6.66c-.17-.16-.22-.42-.11-.63l.97-1.89-1.57-.43c-.15-.04-.27-.15-.34-.29s-.06-.3,0-.44l1.91-4.04c0-.18-.04-.34-.04-.52,0-.34.05-.67.08-1-5.15,1.54-10.94,5.25-10.94,14.17,0,1,.05,1.97.11,2.93,2.97-1.31,5.48-2,7.48-2.35ZM28.87,23.66c.03-.26.26-.45.52-.45h5.33c.26,0,.49.19.52.45l.6,4.49c.02.15-.03.3-.13.41s-.24.18-.39.18h-6.52c-.15,0-.3-.07-.39-.18s-.15-.26-.13-.41l.6-4.49Z"/>
      <polygon class="st0" points="34.26 24.25 29.85 24.25 29.39 27.69 34.71 27.69 34.26 24.25"/>
    </g>
    <g>
      <path class="st0" d="M15.62,33.29c.81,2.28,1.69,3.68,2.13,4.29l4.54-3.07c-.34-.74-1.02-2.41-1.5-4.43-1.89.64-3.85,1.65-5.17,3.21Z"/>
      <path class="st0" d="M25.56,12.82c.15.04.28.15.34.29.06.15.06.31-.01.45l-1.08,2.11,5.27,4.83-1.98-4.98c-1.53-1.18-2.66-3.01-3.17-5.17l-.96,2.03,1.59.43Z"/>
      <path class="st0" d="M32.05,15.89c3.52,0,6.38-3.56,6.38-7.95s-2.86-7.95-6.38-7.95-6.38,3.56-6.38,7.95,2.86,7.95,6.38,7.95Z"/>
      <path class="st0" d="M36.01,15.53l-1.98,4.98,5.27-4.83-1.08-2.11c-.07-.14-.08-.31-.01-.45.06-.14.19-.25.34-.29l1.59-.43-.96-2.03c-.5,2.16-1.63,3.99-3.17,5.17Z"/>
      <path class="st0" d="M21.35,21.7c.14-.26.28-.51.44-.75.13-.19.37-.26.59-.2.22.07.37.27.37.5,0,.08,0,.16,0,.25,2.48-.28,3.88,0,4.01.02.26.06.43.29.41.55l-.45,6.41c-.02.26-.23.47-.49.49-.02,0-.39.03-.97.1,1.65,1.92,4.02,2.98,6.79,2.98s5.13-1.05,6.78-2.97c-.64-.08-1.05-.11-1.06-.11-.26-.01-.48-.22-.49-.49l-.45-6.41c-.02-.26.16-.49.41-.55.07-.02,1.51-.31,4.11,0,0-.09,0-.17,0-.26,0-.23.15-.43.37-.5.22-.07.46.01.59.2,3.25,4.65.34,11.75-.49,13.56l4.54,3.06c.94-1.32,3.98-6.34,3.98-16.46,0-8.92-5.79-12.63-10.94-14.17.03.33.08.66.08,1,0,.18-.03.35-.04.52l1.91,4.04c.07.14.07.3,0,.44s-.19.25-.34.29l-1.57.43.97,1.89c.11.21.06.47-.11.63l-7.25,6.66c-.1.09-.23.14-.35.14-.1,0-.21-.03-.3-.09-.2-.14-.28-.4-.19-.63l2.34-5.87c-.78.34-1.61.56-2.49.56s-1.71-.22-2.49-.56l2.34,5.87c.09.23.01.49-.19.63-.09.06-.19.09-.3.09-.13,0-.26-.05-.35-.14l-7.25-6.66c-.17-.16-.22-.42-.11-.63l.97-1.89-1.57-.43c-.15-.04-.27-.15-.34-.29s-.06-.3,0-.44l1.91-4.04c0-.18-.04-.34-.04-.52,0-.34.05-.67.08-1-5.15,1.54-10.94,5.25-10.94,14.17,0,1,.05,1.97.11,2.93,2.97-1.31,5.48-2,7.48-2.35ZM28.87,23.66c.03-.26.26-.45.52-.45h5.33c.26,0,.49.19.52.45l.6,4.49c.02.15-.03.3-.13.41s-.24.18-.39.18h-6.52c-.15,0-.3-.07-.39-.18s-.15-.26-.13-.41l.6-4.49Z"/>
      <polygon class="st0" points="34.26 24.25 29.85 24.25 29.39 27.69 34.71 27.69 34.26 24.25"/>
    </g>
    <g>
      <path class="st0" d="M15.62,33.29c.81,2.28,1.69,3.68,2.13,4.29l4.54-3.07c-.34-.74-1.02-2.41-1.5-4.43-1.89.64-3.85,1.65-5.17,3.21Z"/>
      <path class="st0" d="M25.56,12.82c.15.04.28.15.34.29.06.15.06.31-.01.45l-1.08,2.11,5.27,4.83-1.98-4.98c-1.53-1.18-2.66-3.01-3.17-5.17l-.96,2.03,1.59.43Z"/>
      <path class="st0" d="M32.05,15.89c3.52,0,6.38-3.56,6.38-7.95s-2.86-7.95-6.38-7.95-6.38,3.56-6.38,7.95,2.86,7.95,6.38,7.95Z"/>
      <path class="st0" d="M36.01,15.53l-1.98,4.98,5.27-4.83-1.08-2.11c-.07-.14-.08-.31-.01-.45.06-.14.19-.25.34-.29l1.59-.43-.96-2.03c-.5,2.16-1.63,3.99-3.17,5.17Z"/>
      <path class="st0" d="M21.35,21.7c.14-.26.28-.51.44-.75.13-.19.37-.26.59-.2.22.07.37.27.37.5,0,.08,0,.16,0,.25,2.48-.28,3.88,0,4.01.02.26.06.43.29.41.55l-.45,6.41c-.02.26-.23.47-.49.49-.02,0-.39.03-.97.1,1.65,1.92,4.02,2.98,6.79,2.98s5.13-1.05,6.78-2.97c-.64-.08-1.05-.11-1.06-.11-.26-.01-.48-.22-.49-.49l-.45-6.41c-.02-.26.16-.49.41-.55.07-.02,1.51-.31,4.11,0,0-.09,0-.17,0-.26,0-.23.15-.43.37-.5.22-.07.46.01.59.2,3.25,4.65.34,11.75-.49,13.56l4.54,3.06c.94-1.32,3.98-6.34,3.98-16.46,0-8.92-5.79-12.63-10.94-14.17.03.33.08.66.08,1,0,.18-.03.35-.04.52l1.91,4.04c.07.14.07.3,0,.44s-.19.25-.34.29l-1.57.43.97,1.89c.11.21.06.47-.11.63l-7.25,6.66c-.1.09-.23.14-.35.14-.1,0-.21-.03-.3-.09-.2-.14-.28-.4-.19-.63l2.34-5.87c-.78.34-1.61.56-2.49.56s-1.71-.22-2.49-.56l2.34,5.87c.09.23.01.49-.19.63-.09.06-.19.09-.3.09-.13,0-.26-.05-.35-.14l-7.25-6.66c-.17-.16-.22-.42-.11-.63l.97-1.89-1.57-.43c-.15-.04-.27-.15-.34-.29s-.06-.3,0-.44l1.91-4.04c0-.18-.04-.34-.04-.52,0-.34.05-.67.08-1-5.15,1.54-10.94,5.25-10.94,14.17,0,1,.05,1.97.11,2.93,2.97-1.31,5.48-2,7.48-2.35ZM28.87,23.66c.03-.26.26-.45.52-.45h5.33c.26,0,.49.19.52.45l.6,4.49c.02.15-.03.3-.13.41s-.24.18-.39.18h-6.52c-.15,0-.3-.07-.39-.18s-.15-.26-.13-.41l.6-4.49Z"/>
      <polygon class="st0" points="34.26 24.25 29.85 24.25 29.39 27.69 34.71 27.69 34.26 24.25"/>
    </g>
  </g>
  <g>
    <g>
      <path class="st0" d="M42.07,22.68c-2.05-.32-3.49-.27-4.17-.2l.39,5.47c.76.07,2.39.29,4.22.81.35-1.99.38-4.2-.44-6.08Z"/>
      <path class="st0" d="M52.27,55.82l-4.45-.36c-.15-.01-.3-.09-.39-.22-.09-.13-.12-.29-.08-.44l.41-1.58-2.12-.1c-.24-.01-.44-.18-.49-.41l-2.14-9.61c-.05-.24.07-.48.29-.59.23-.11.49-.04.64.15l3.91,4.96c.1-.85.32-1.67.76-2.43.44-.76,1.04-1.37,1.73-1.88l-6.25-.91c-.24-.04-.43-.23-.45-.48s.13-.47.36-.54l9.39-2.95c.23-.07.47.02.6.22l1.15,1.78,1.16-1.15c.11-.11.27-.16.42-.15.15.01.3.1.38.22l2.54,3.68c.16.08.32.13.47.22.29.17.55.38.83.57,1.24-5.23.92-12.1-6.8-16.56-.99-.57-1.99-1.07-2.98-1.56-.3,3.11-.89,5.6-1.53,7.52.24.35.47.7.65,1.08.1.21.05.45-.12.61-.1.09-.23.14-.35.14-.09,0-.18-.02-.26-.07-.16-.09-.31-.17-.47-.25-1.07,2.6-2.12,3.81-2.21,3.91-.1.11-.25.17-.39.17-.1,0-.2-.03-.29-.09l-5.32-3.59c-.22-.15-.29-.44-.18-.67,0-.02.21-.42.48-1.08-2.34.54-4.28,1.97-5.61,4.27-1.26,2.19-1.56,4.47-.98,6.67.18-.25.28-.41.29-.41.14-.22.43-.3.67-.18l5.77,2.81c.23.11.35.38.27.63-.02.07-.48,1.44-2.01,3.5.22.14.44.29.68.43.2.11.3.34.25.57-.05.22-.24.39-.47.41-.6.05-1.19.02-1.77-.07,0,0,0,0,0,0,0,0-.01,0-.02,0-4.85-.71-8.68-5.69-9.71-7.14l-4.92,2.4c.67,1.48,3.5,6.62,12.26,11.68,7.71,4.45,13.82,1.32,17.72-2.37-.3-.14-.6-.28-.89-.44-.15-.09-.28-.2-.43-.3ZM41.42,44.63c-.07,0-.14-.01-.2-.04l-4.19-1.73c-.14-.06-.25-.17-.3-.32-.05-.14-.03-.3.04-.43l3.26-5.65c.07-.13.2-.22.35-.25.15-.03.3,0,.42.1l3.59,2.76c.21.16.27.45.13.68l-2.66,4.61c-.1.17-.27.26-.45.26Z"/>
      <path class="st0" d="M55.44,41.62c-.11.11-.26.17-.43.15-.16-.02-.3-.1-.38-.24l-1.28-1.99-6.82,2.15,5.3.77c1.78-.74,3.94-.8,6.06-.16l-1.27-1.84-1.17,1.16Z"/>
      <path class="st0" d="M59.6,44.16c-1.49-.86-3.1-1.28-4.61-1.28-2.32,0-4.4.98-5.47,2.83-1.76,3.05-.1,7.31,3.69,9.5,1.86,1.07,3.93,1.49,5.85,1.18,1.88-.3,3.38-1.28,4.22-2.73.84-1.46.93-3.24.26-5.02-.69-1.82-2.09-3.41-3.95-4.48Z"/>
      <path class="st0" d="M50.76,54.65c-1.62-1.52-2.64-3.41-2.89-5.33l-3.32-4.2,1.55,6.98,2.37.12c.16,0,.3.09.4.21.09.13.12.29.08.44l-.42,1.6,2.23.18Z"/>
      <polygon class="st0" points="37.98 42.12 41.19 43.44 43.39 39.62 40.64 37.51 37.98 42.12"/>
    </g>
    <g>
      <path class="st0" d="M42.07,22.68c-2.05-.32-3.49-.27-4.17-.2l.39,5.47c.76.07,2.39.29,4.22.81.35-1.99.38-4.2-.44-6.08Z"/>
      <path class="st0" d="M52.27,55.82l-4.45-.36c-.15-.01-.3-.09-.39-.22-.09-.13-.12-.29-.08-.44l.41-1.58-2.12-.1c-.24-.01-.44-.18-.49-.41l-2.14-9.61c-.05-.24.07-.48.29-.59.23-.11.49-.04.64.15l3.91,4.96c.1-.85.32-1.67.76-2.43.44-.76,1.04-1.37,1.73-1.88l-6.25-.91c-.24-.04-.43-.23-.45-.48s.13-.47.36-.54l9.39-2.95c.23-.07.47.02.6.22l1.15,1.78,1.16-1.15c.11-.11.27-.16.42-.15.15.01.3.1.38.22l2.54,3.68c.16.08.32.13.47.22.29.17.55.38.83.57,1.24-5.23.92-12.1-6.8-16.56-.99-.57-1.99-1.07-2.98-1.56-.3,3.11-.89,5.6-1.53,7.52.24.35.47.7.65,1.08.1.21.05.45-.12.61-.1.09-.23.14-.35.14-.09,0-.18-.02-.26-.07-.16-.09-.31-.17-.47-.25-1.07,2.6-2.12,3.81-2.21,3.91-.1.11-.25.17-.39.17-.1,0-.2-.03-.29-.09l-5.32-3.59c-.22-.15-.29-.44-.18-.67,0-.02.21-.42.48-1.08-2.34.54-4.28,1.97-5.61,4.27-1.26,2.19-1.56,4.47-.98,6.67.18-.25.28-.41.29-.41.14-.22.43-.3.67-.18l5.77,2.81c.23.11.35.38.27.63-.02.07-.48,1.44-2.01,3.5.22.14.44.29.68.43.2.11.3.34.25.57-.05.22-.24.39-.47.41-.6.05-1.19.02-1.77-.07,0,0,0,0,0,0,0,0-.01,0-.02,0-4.85-.71-8.68-5.69-9.71-7.14l-4.92,2.4c.67,1.48,3.5,6.62,12.26,11.68,7.71,4.45,13.82,1.32,17.72-2.37-.3-.14-.6-.28-.89-.44-.15-.09-.28-.2-.43-.3ZM41.42,44.63c-.07,0-.14-.01-.2-.04l-4.19-1.73c-.14-.06-.25-.17-.3-.32-.05-.14-.03-.3.04-.43l3.26-5.65c.07-.13.2-.22.35-.25.15-.03.3,0,.42.1l3.59,2.76c.21.16.27.45.13.68l-2.66,4.61c-.1.17-.27.26-.45.26Z"/>
      <path class="st0" d="M55.44,41.62c-.11.11-.26.17-.43.15-.16-.02-.3-.1-.38-.24l-1.28-1.99-6.82,2.15,5.3.77c1.78-.74,3.94-.8,6.06-.16l-1.27-1.84-1.17,1.16Z"/>
      <path class="st0" d="M59.6,44.16c-1.49-.86-3.1-1.28-4.61-1.28-2.32,0-4.4.98-5.47,2.83-1.76,3.05-.1,7.31,3.69,9.5,1.86,1.07,3.93,1.49,5.85,1.18,1.88-.3,3.38-1.28,4.22-2.73.84-1.46.93-3.24.26-5.02-.69-1.82-2.09-3.41-3.95-4.48Z"/>
      <path class="st0" d="M50.76,54.65c-1.62-1.52-2.64-3.41-2.89-5.33l-3.32-4.2,1.55,6.98,2.37.12c.16,0,.3.09.4.21.09.13.12.29.08.44l-.42,1.6,2.23.18Z"/>
      <polygon class="st0" points="37.98 42.12 41.19 43.44 43.39 39.62 40.64 37.51 37.98 42.12"/>
    </g>
    <g>
      <path class="st0" d="M42.07,22.68c-2.05-.32-3.49-.27-4.17-.2l.39,5.47c.76.07,2.39.29,4.22.81.35-1.99.38-4.2-.44-6.08Z"/>
      <path class="st0" d="M52.27,55.82l-4.45-.36c-.15-.01-.3-.09-.39-.22-.09-.13-.12-.29-.08-.44l.41-1.58-2.12-.1c-.24-.01-.44-.18-.49-.41l-2.14-9.61c-.05-.24.07-.48.29-.59.23-.11.49-.04.64.15l3.91,4.96c.1-.85.32-1.67.76-2.43.44-.76,1.04-1.37,1.73-1.88l-6.25-.91c-.24-.04-.43-.23-.45-.48s.13-.47.36-.54l9.39-2.95c.23-.07.47.02.6.22l1.15,1.78,1.16-1.15c.11-.11.27-.16.42-.15.15.01.3.1.38.22l2.54,3.68c.16.08.32.13.47.22.29.17.55.38.83.57,1.24-5.23.92-12.1-6.8-16.56-.99-.57-1.99-1.07-2.98-1.56-.3,3.11-.89,5.6-1.53,7.52.24.35.47.7.65,1.08.1.21.05.45-.12.61-.1.09-.23.14-.35.14-.09,0-.18-.02-.26-.07-.16-.09-.31-.17-.47-.25-1.07,2.6-2.12,3.81-2.21,3.91-.1.11-.25.17-.39.17-.1,0-.2-.03-.29-.09l-5.32-3.59c-.22-.15-.29-.44-.18-.67,0-.02.21-.42.48-1.08-2.34.54-4.28,1.97-5.61,4.27-1.26,2.19-1.56,4.47-.98,6.67.18-.25.28-.41.29-.41.14-.22.43-.3.67-.18l5.77,2.81c.23.11.35.38.27.63-.02.07-.48,1.44-2.01,3.5.22.14.44.29.68.43.2.11.3.34.25.57-.05.22-.24.39-.47.41-.6.05-1.19.02-1.77-.07,0,0,0,0,0,0,0,0-.01,0-.02,0-4.85-.71-8.68-5.69-9.71-7.14l-4.92,2.4c.67,1.48,3.5,6.62,12.26,11.68,7.71,4.45,13.82,1.32,17.72-2.37-.3-.14-.6-.28-.89-.44-.15-.09-.28-.2-.43-.3ZM41.42,44.63c-.07,0-.14-.01-.2-.04l-4.19-1.73c-.14-.06-.25-.17-.3-.32-.05-.14-.03-.3.04-.43l3.26-5.65c.07-.13.2-.22.35-.25.15-.03.3,0,.42.1l3.59,2.76c.21.16.27.45.13.68l-2.66,4.61c-.1.17-.27.26-.45.26Z"/>
      <path class="st0" d="M55.44,41.62c-.11.11-.26.17-.43.15-.16-.02-.3-.1-.38-.24l-1.28-1.99-6.82,2.15,5.3.77c1.78-.74,3.94-.8,6.06-.16l-1.27-1.84-1.17,1.16Z"/>
      <path class="st0" d="M59.6,44.16c-1.49-.86-3.1-1.28-4.61-1.28-2.32,0-4.4.98-5.47,2.83-1.76,3.05-.1,7.31,3.69,9.5,1.86,1.07,3.93,1.49,5.85,1.18,1.88-.3,3.38-1.28,4.22-2.73.84-1.46.93-3.24.26-5.02-.69-1.82-2.09-3.41-3.95-4.48Z"/>
      <path class="st0" d="M50.76,54.65c-1.62-1.52-2.64-3.41-2.89-5.33l-3.32-4.2,1.55,6.98,2.37.12c.16,0,.3.09.4.21.09.13.12.29.08.44l-.42,1.6,2.23.18Z"/>
      <polygon class="st0" points="37.98 42.12 41.19 43.44 43.39 39.62 40.64 37.51 37.98 42.12"/>
    </g>
  </g>
  <g>
    <g>
      <path class="st0" d="M40.4,47.26l-4.93-2.4c-.43.61-1.39,1.85-2.7,3.14,1.47,1.3,3.29,2.5,5.27,2.89,1.37-1.68,2.07-3,2.36-3.64Z"/>
      <path class="st0" d="M40.4,47.26l-4.93-2.4c-.43.61-1.39,1.85-2.7,3.14,1.47,1.3,3.29,2.5,5.27,2.89,1.37-1.68,2.07-3,2.36-3.64Z"/>
    </g>
    <g>
      <path class="st0" d="M12.18,42.47l5.3-.77-6.82-2.15-1.28,1.99c-.09.13-.23.22-.38.24-.16.02-.31-.04-.43-.15l-1.17-1.16-1.28,1.85c2.12-.65,4.28-.58,6.06.16Z"/>
      <path class="st0" d="M12.18,42.47l5.3-.77-6.82-2.15-1.28,1.99c-.09.13-.23.22-.38.24-.16.02-.31-.04-.43-.15l-1.17-1.16-1.28,1.85c2.12-.65,4.28-.58,6.06.16Z"/>
    </g>
    <g>
      <path class="st0" d="M14.47,45.71c-1.07-1.85-3.15-2.83-5.47-2.83-1.51,0-3.11.41-4.61,1.28-1.86,1.07-3.26,2.66-3.95,4.48-.68,1.78-.59,3.56.26,5.02.84,1.46,2.34,2.43,4.22,2.73,1.92.31,4-.11,5.85-1.18,3.79-2.19,5.45-6.45,3.69-9.5Z"/>
      <path class="st0" d="M14.47,45.71c-1.07-1.85-3.15-2.83-5.47-2.83-1.51,0-3.11.41-4.61,1.28-1.86,1.07-3.26,2.66-3.95,4.48-.68,1.78-.59,3.56.26,5.02.84,1.46,2.34,2.43,4.22,2.73,1.92.31,4-.11,5.85-1.18,3.79-2.19,5.45-6.45,3.69-9.5Z"/>
    </g>
    <g>
      <path class="st0" d="M15.54,52.21l2.37-.12,1.55-6.98-3.32,4.2c-.25,1.91-1.27,3.81-2.89,5.33l2.23-.18-.42-1.6c-.04-.15,0-.32.08-.44.09-.13.24-.21.4-.21Z"/>
      <path class="st0" d="M15.54,52.21l2.37-.12,1.55-6.98-3.32,4.2c-.25,1.91-1.27,3.81-2.89,5.33l2.23-.18-.42-1.6c-.04-.15,0-.32.08-.44.09-.13.24-.21.4-.21Z"/>
    </g>
    <g>
      <polygon class="st0" points="26.02 42.12 23.36 37.51 20.61 39.62 22.81 43.44 26.02 42.12"/>
      <polygon class="st0" points="26.02 42.12 23.36 37.51 20.61 39.62 22.81 43.44 26.02 42.12"/>
    </g>
    <g>
      <path class="st0" d="M25.52,52.02c-.3.04-.61.07-.91.07-.21,0-.42,0-.63-.03-.23-.02-.42-.18-.47-.41-.05-.22.05-.45.25-.57.24-.14.45-.28.67-.43-1.49-2.02-1.96-3.38-2-3.5-.08-.25.03-.52.27-.63l5.77-2.81c.24-.11.53-.04.67.18,0,.01.11.17.29.41.58-2.2.28-4.49-.98-6.67-1.31-2.26-3.21-3.67-5.49-4.24.27.64.46,1.04.47,1.05.12.24.04.52-.18.67l-5.32,3.59c-.09.06-.19.09-.29.09-.14,0-.29-.06-.39-.17-.05-.06-1.13-1.27-2.22-3.96-.19.1-.38.19-.56.3-.2.11-.45.09-.62-.07-.17-.15-.22-.4-.12-.61.23-.49.52-.93.83-1.34,0-.01.01-.02.02-.03,2.99-3.95,9.35-4.82,11.14-4.98l.39-5.47c-1.61-.16-7.49-.28-16.25,4.78-7.72,4.46-8.05,11.32-6.8,16.56.27-.19.53-.4.83-.57.15-.09.32-.14.47-.22l2.54-3.68c.09-.13.23-.21.38-.22.15,0,.31.04.42.15l1.16,1.15,1.15-1.78c.13-.2.37-.29.6-.22l9.39,2.95c.23.07.38.3.36.54s-.2.44-.45.48l-6.25.91c.68.51,1.29,1.12,1.72,1.88.44.76.66,1.59.76,2.43l3.91-4.96c.15-.19.41-.26.64-.15.22.1.34.35.29.59l-2.14,9.61c-.05.23-.25.4-.49.41l-2.12.1.41,1.58c.04.15.01.31-.08.44-.09.13-.23.21-.39.22l-4.45.36c-.15.1-.28.21-.43.3-.29.17-.59.3-.89.44,3.91,3.69,10.01,6.82,17.72,2.37,1.03-.6,2.01-1.22,2.95-1.86-2.48-1.81-4.28-3.55-5.57-5.05ZM19.47,39.75c-.13-.23-.07-.52.13-.68l3.59-2.76c.12-.09.27-.13.42-.1.15.03.28.12.35.25l3.26,5.65c.08.13.09.29.04.43-.05.14-.16.26-.3.32l-4.19,1.73c-.06.03-.13.04-.2.04-.18,0-.36-.1-.45-.26l-2.66-4.61Z"/>
      <path class="st0" d="M25.52,52.02c-.3.04-.61.07-.91.07-.21,0-.42,0-.63-.03-.23-.02-.42-.18-.47-.41-.05-.22.05-.45.25-.57.24-.14.45-.28.67-.43-1.49-2.02-1.96-3.38-2-3.5-.08-.25.03-.52.27-.63l5.77-2.81c.24-.11.53-.04.67.18,0,.01.11.17.29.41.58-2.2.28-4.49-.98-6.67-1.31-2.26-3.21-3.67-5.49-4.24.27.64.46,1.04.47,1.05.12.24.04.52-.18.67l-5.32,3.59c-.09.06-.19.09-.29.09-.14,0-.29-.06-.39-.17-.05-.06-1.13-1.27-2.22-3.96-.19.1-.38.19-.56.3-.2.11-.45.09-.62-.07-.17-.15-.22-.4-.12-.61.23-.49.52-.93.83-1.34,0-.01.01-.02.02-.03,2.99-3.95,9.35-4.82,11.14-4.98l.39-5.47c-1.61-.16-7.49-.28-16.25,4.78-7.72,4.46-8.05,11.32-6.8,16.56.27-.19.53-.4.83-.57.15-.09.32-.14.47-.22l2.54-3.68c.09-.13.23-.21.38-.22.15,0,.31.04.42.15l1.16,1.15,1.15-1.78c.13-.2.37-.29.6-.22l9.39,2.95c.23.07.38.3.36.54s-.2.44-.45.48l-6.25.91c.68.51,1.29,1.12,1.72,1.88.44.76.66,1.59.76,2.43l3.91-4.96c.15-.19.41-.26.64-.15.22.1.34.35.29.59l-2.14,9.61c-.05.23-.25.4-.49.41l-2.12.1.41,1.58c.04.15.01.31-.08.44-.09.13-.23.21-.39.22l-4.45.36c-.15.1-.28.21-.43.3-.29.17-.59.3-.89.44,3.91,3.69,10.01,6.82,17.72,2.37,1.03-.6,2.01-1.22,2.95-1.86-2.48-1.81-4.28-3.55-5.57-5.05ZM19.47,39.75c-.13-.23-.07-.52.13-.68l3.59-2.76c.12-.09.27-.13.42-.1.15.03.28.12.35.25l3.26,5.65c.08.13.09.29.04.43-.05.14-.16.26-.3.32l-4.19,1.73c-.06.03-.13.04-.2.04-.18,0-.36-.1-.45-.26l-2.66-4.61Z"/>
    </g>
  </g>
</svg>