<?xml version="1.0" encoding="UTF-8"?>
<svg id="Layer_1" xmlns="http://www.w3.org/2000/svg" version="1.1" viewBox="0 0 30 30">
  <!-- Generator: Adobe Illustrator 30.2.1, SVG Export Plug-In . SVG Version: 2.1.1 Build 1)  -->
  <defs>
    <style>
      .st0 {
        fill: #fff;
      }
    </style>
  </defs>
  <path class="st0" d="M15,0C6.72,0,0,6.72,0,15s6.72,15,15,15,15-6.72,15-15S23.28,0,15,0ZM15.84,8.13c.58-.69,1.57-1.2,2.38-1.23.1.95-.28,1.9-.84,2.59-.56.68-1.49,1.22-2.4,1.15-.12-.93.33-1.9.86-2.5ZM20.47,21.08c-.68.99-1.37,1.97-2.48,1.99-1.08.02-1.43-.64-2.67-.64s-1.62.62-2.65.66c-1.07.04-1.87-1.07-2.56-2.05-1.39-2.01-2.45-5.68-1.03-8.15.71-1.23,1.98-2.01,3.35-2.03,1.04-.02,2.03.7,2.67.7s1.84-.87,3.1-.74c.53.02,2.01.21,2.96,1.61-.08.05-1.77,1.03-1.75,3.08.02,2.45,2.15,3.26,2.17,3.27-.02.06-.34,1.16-1.12,2.3Z"/>
</svg>