<?xml version="1.0" encoding="UTF-8"?>
<svg id="Layer_1" xmlns="http://www.w3.org/2000/svg" version="1.1" viewBox="0 0 30 30">
  <!-- Generator: Adobe Illustrator 30.1.0, SVG Export Plug-In . SVG Version: 2.1.1 Build 136)  -->
  <defs>
    <style>
      .st0 {
        fill: #fff;
      }
    </style>
  </defs>
  <path class="st0" d="M15,0C6.72,0,0,6.72,0,15s6.72,15,15,15,15-6.72,15-15S23.28,0,15,0ZM22.19,10.26h0c.34-.26.91.04.87.46.02.39-.47.68-.81.48-.37-.17-.41-.73-.06-.95ZM20.49,12.32c.03.6-.73,1.02-1.23.67-.51-.29-.47-1.11.06-1.36.5-.28,1.19.13,1.17.69ZM18.92,16.1c-.63.43-1.6.21-1.94-.47-.42-.7,0-1.69.8-1.91.56-.16,1.23.05,1.53.56.4.58.21,1.44-.39,1.82ZM19.59,6.45c.31-.15.59.13.64.42-.07.25-.27.47-.56.4-.41-.05-.48-.69-.08-.82ZM17.89,8.72c.2-.5,1-.52,1.22-.03.22.38-.05.85-.45.98-.52.1-1.02-.46-.78-.95ZM16.15,11.04c.57-.2,1.24.04,1.56.54.43.61.2,1.53-.46,1.88-.68.41-1.68.06-1.94-.69-.29-.67.13-1.52.84-1.73h0ZM14.75,5.96h0c.44-.22.97.3.74.72-.14.35-.65.44-.91.18-.28-.25-.19-.76.17-.9ZM15,8.86c.28.05.58.17.7.44.22.38.02.9-.37,1.07-.18.1-.4.06-.6.05-.3-.15-.56-.43-.53-.78,0-.43.39-.75.81-.78ZM12.83,11.1c.63-.29,1.47-.05,1.78.58.36.61.08,1.47-.56,1.79-.64.36-1.54.09-1.85-.57-.35-.64-.04-1.51.63-1.8ZM12.71,16.01c-.62.57-1.77.34-2.1-.44-.38-.71.08-1.67.87-1.86h0c.58-.16,1.25.11,1.53.64.31.53.18,1.26-.3,1.65ZM11.13,8.42c.44-.28,1.07.13,1.01.64-.02.51-.71.81-1.1.46-.38-.27-.32-.89.1-1.1ZM10.07,6.46c.26-.11.6.13.57.42.03.31-.35.53-.62.39-.36-.14-.32-.71.05-.8ZM5.09,15.29c-.18-.22-.07-.55.18-.66h0c.3-.13.68.13.61.46-.02.37-.58.52-.78.21ZM7.22,10.26h0c.4-.24.95.2.8.63-.08.37-.59.53-.89.29-.31-.22-.26-.76.09-.92ZM8.05,19.36c-.05.38-.54.6-.86.39-.35-.2-.33-.76.02-.94.38-.25.92.12.83.55ZM8.59,15.23c-.12.45-.76.61-1.09.28-.39-.31-.24-1,.24-1.13.5-.19,1.06.36.85.85ZM10.32,11.54c.41.04.74.37.79.78-.03.41-.35.81-.79.81-.48.04-.91-.43-.82-.9.05-.4.43-.66.81-.68ZM10.2,16.9c.56-.09,1.08.52.86,1.04-.17.56-.99.71-1.35.25-.43-.44-.11-1.23.5-1.29ZM10.47,23.52c-.31.21-.67-.08-.7-.4.08-.23.26-.45.53-.39.4.03.51.61.17.8ZM11.42,21.67c-.32,0-.52-.29-.62-.55,0-.29.13-.61.42-.72h0c.42-.22.98.16.95.62.01.38-.36.7-.75.65ZM13.17,19.01c-.63-.1-1.12-.7-1.1-1.32,0-.6.46-1.16,1.05-1.28.79-.2,1.65.45,1.66,1.26.05.81-.79,1.54-1.6,1.35ZM15.46,23.81c-.12.14-.27.28-.47.27-.37.04-.7-.37-.56-.71h0c.08-.34.52-.5.81-.32.19.08.25.29.3.47-.03.09-.05.19-.07.28ZM14.52,21c-.54-.3-.45-1.2.15-1.39.49-.21,1.12.21,1.08.74.04.59-.74,1-1.22.65ZM16.37,19.01c-.75-.09-1.3-.91-1.09-1.62.11-.48.51-.86.99-.98h0c.81-.22,1.69.44,1.67,1.27.04.8-.77,1.5-1.57,1.34ZM18.13,21.53c-.39-.27-.34-.91.08-1.12.43-.26,1.05.11,1.01.61.01.52-.68.85-1.09.51ZM19.42,23.37h0c-.19-.29.03-.63.35-.7.25.05.52.24.46.52-.04.39-.61.51-.81.17ZM19.28,18.33c-.55-.31-.45-1.21.15-1.4.5-.21,1.11.22,1.07.75.02.58-.73.99-1.22.65ZM21.35,15.09c-.02-.42.3-.77.72-.79.34.05.68.33.65.7.03.49-.56.82-.99.59-.2-.1-.3-.3-.38-.49ZM22.94,19.62c-.24.3-.79.22-.92-.15-.19-.36.16-.83.56-.76.2,0,.34.15.47.28.03.21.07.46-.11.63ZM24.54,15.41c-.43.04-.57-.6-.21-.79.21-.15.55-.04.64.2.14.27-.12.63-.42.59Z"/>
</svg>