<?xml version="1.0" encoding="UTF-8"?>
<svg id="Layer_1" xmlns="http://www.w3.org/2000/svg" version="1.1" viewBox="0 0 30 30">
  <!-- Generator: Adobe Illustrator 30.2.1, SVG Export Plug-In . SVG Version: 2.1.1 Build 1)  -->
  <defs>
    <style>
      .st0 {
        fill: #fff;
      }
    </style>
  </defs>
  <path class="st0" d="M16.13,13.62c-.25.02-.5.03-.75.06-.43.06-.86.16-1.21.44-.51.4-.62.95-.53,1.57.1.72.75,1.12,1.44.88.47-.16.76-.51.96-.94.21-.44.22-.91.22-1.39,0-.16,0-.33,0-.49,0-.1-.03-.14-.13-.13Z"/>
  <path class="st0" d="M29.88,13.05C29.03,6.36,23.64.97,16.95.12,7.14-1.11-1.11,7.14.12,16.95c.84,6.69,6.24,12.08,12.93,12.93,9.81,1.24,18.06-7.01,16.83-16.83ZM16.2,11.1c-.1-.43-.39-.69-.82-.78-.31-.07-.62-.05-.92.05-.46.16-.74.47-.85.94-.06.26-.18.35-.43.32-.53-.06-1.07-.11-1.6-.17-.22-.02-.33-.19-.29-.4.28-1.35,1.16-2.11,2.44-2.46.98-.27,1.98-.28,2.96,0,.79.22,1.46.61,1.83,1.39.21.44.26.92.27,1.39,0,.61,0,1.23,0,1.84,0,.54.02,1.09,0,1.63-.03.62.16,1.15.55,1.62.05.06.09.11.13.17.14.21.11.36-.08.52-.41.35-.82.69-1.23,1.04-.24.21-.4.2-.65,0-.33-.27-.59-.6-.82-.96-.06-.08-.08-.08-.15-.02-.41.4-.84.77-1.4.96-.85.29-1.72.34-2.57.03-.82-.29-1.31-.9-1.5-1.74-.2-.94-.1-1.84.48-2.64.44-.6,1.05-.96,1.75-1.18.72-.22,1.47-.31,2.22-.38.21-.02.42-.04.63-.06.05,0,.1,0,.09-.08,0-.35.03-.7-.05-1.04ZM21.47,19.66c-.07.06-.14.1-.22.15-1.12.73-2.36,1.2-3.66,1.49-.86.2-1.73.29-2.55.3-2.49-.02-4.72-.66-6.74-2-.41-.27-.8-.57-1.17-.9-.03-.03-.07-.06-.09-.09-.04-.05-.06-.11-.02-.17.04-.07.11-.07.18-.04.14.07.28.14.42.22,1.28.68,2.64,1.17,4.06,1.48,1.28.28,2.58.41,3.9.38,1.88-.05,3.69-.43,5.44-1.13.08-.04.17-.07.26-.09.12-.02.25,0,.3.13.05.12-.02.22-.11.3ZM22.02,20.85s-.05.04-.08.06c-.06.04-.13.08-.19.03-.06-.05-.03-.12,0-.18.19-.48.39-.96.48-1.47.01-.07.02-.13.02-.19,0-.21-.07-.3-.28-.36-.22-.06-.44-.05-.65-.05-.38,0-.75.05-1.12.08-.07,0-.15.03-.19-.05-.04-.09.04-.14.1-.18.46-.31.98-.43,1.53-.46.38-.02.75,0,1.11.1.17.05.25.15.24.32-.02.91-.32,1.7-.98,2.34Z"/>
</svg>