<?xml version="1.0" encoding="UTF-8"?>
<svg id="Layer_1" xmlns="http://www.w3.org/2000/svg" version="1.1" viewBox="0 0 30 30">
  <!-- Generator: Adobe Illustrator 30.3.0, SVG Export Plug-In . SVG Version: 2.1.3 Build 182)  -->
  <defs>
    <style>
      .st0 {
        fill: #fff;
        fill-rule: evenodd;
      }
    </style>
  </defs>
  <path class="st0" d="M30,15c0,8.28-6.72,15-15,15S0,23.28,0,15,6.72,0,15,0s15,6.72,15,15ZM11.31,19.98h-2.54c-.53,0-.8,0-.96-.1-.17-.11-.28-.3-.29-.5,0-.19.12-.42.39-.88l6.26-11.03c.27-.47.4-.7.57-.79.18-.09.4-.09.58,0,.17.09.3.32.57.79l1.29,2.25h0c.29.51.43.77.5,1.04.07.29.07.6,0,.89-.06.27-.21.53-.5,1.04l-3.29,5.81h0c-.29.52-.44.78-.64.97-.22.21-.49.37-.78.45-.27.07-.56.07-1.16.07ZM17.71,19.98h3.63c.54,0,.81,0,.97-.11.17-.11.28-.3.29-.51,0-.18-.12-.41-.37-.84,0-.01-.02-.03-.03-.05l-1.82-3.11-.02-.04c-.26-.43-.38-.65-.55-.74-.18-.09-.4-.09-.58,0-.17.09-.3.31-.57.77l-1.81,3.11h0c-.27.47-.4.7-.39.89.01.21.12.39.29.51.16.1.43.1.96.1Z"/>
</svg>