<?xml version="1.0" encoding="UTF-8"?>
<svg id="Layer_1" xmlns="http://www.w3.org/2000/svg" version="1.1" viewBox="0 0 30 30">
  <!-- Generator: Adobe Illustrator 30.1.0, SVG Export Plug-In . SVG Version: 2.1.1 Build 136)  -->
  <defs>
    <style>
      .st0 {
        fill: #fff;
      }
    </style>
  </defs>
  <path class="st0" d="M17.12,12.85c0-1.68-2.53-1.43-3.34-1.43v2.86c.81,0,3.34.19,3.34-1.42Z"/>
  <path class="st0" d="M13.78,15.7v3.14c.97,0,3.93.2,3.93-1.57s-2.96-1.57-3.93-1.57Z"/>
  <path class="st0" d="M15,0C6.72,0,0,6.72,0,15s6.72,15,15,15,15-6.72,15-15S23.28,0,15,0ZM20.54,17.55c-.21,2.26-1.82,2.87-4.22,3v2.01h-1.43v-1.97c-.36,0-.74,0-1.14,0v1.98h-1.43v-2.01s-.26,0-2.87,0l.29-1.7c1.03.02,1.49.1,1.57-.47v-6.42c-.14-.73-.73-.65-1.86-.63v-1.53c1.73,0,2.35.02,2.87,0v-2.34h1.43v2.3c.38,0,.76-.02,1.13-.02v-2.28h1.43v2.34c1.84.16,3.23.73,3.39,2.42.12,1.24-.4,1.98-1.22,2.4,1.36.33,2.21,1.14,2.05,2.95Z"/>
</svg>