<?xml version="1.0" encoding="UTF-8"?>
<svg id="Layer_1" xmlns="http://www.w3.org/2000/svg" version="1.1" viewBox="0 0 30 30">
  <!-- Generator: Adobe Illustrator 30.2.1, SVG Export Plug-In . SVG Version: 2.1.1 Build 1)  -->
  <defs>
    <style>
      .st0 {
        fill: #fff;
      }
    </style>
  </defs>
  <path class="st0" d="M19.74,16.37v2.32c.65-.11,1.06-.56,1.06-1.16s-.43-.92-1.06-1.16Z"/>
  <path class="st0" d="M11.95,15.49c-.02.46-.18,1.97-.27,2.79h.61c-.1-.85-.23-2.15-.29-2.79h-.05Z"/>
  <path class="st0" d="M17.72,12.41c0,.57.39.92.98,1.18v-2.27c-.61.1-.98.46-.98,1.1Z"/>
  <path class="st0" d="M15,0C6.72,0,0,6.72,0,15s6.72,15,15,15,15-6.72,15-15S23.28,0,15,0ZM9.81,19.18c0,.84-.16,1.92-1.68,1.92-1.13,0-1.62-.6-1.62-1.83v-3.27c0-1.16.58-1.77,1.65-1.77,1.41,0,1.64.93,1.64,1.8v.42h-1.29v-.57c0-.37-.08-.55-.35-.55s-.35.18-.35.55v3.53c0,.36.06.6.35.6s.36-.2.36-.63v-.55h1.3v.36ZM12.58,21l-.18-1.59h-.83l-.16,1.59h-1.31l.94-6.67h1.91l.97,6.67h-1.33ZM19.74,20.86v1.32h-1.05v-1.34c-2.22-.2-3.84-1.36-3.93-3.47h2.98c.07.67.39,1.08.95,1.26v-2.58c-1.75-.46-3.94-.95-3.94-3.52,0-2.04,1.72-3.25,3.94-3.4v-1.32h1.05v1.32c2.24.18,3.68,1.32,3.83,3.4h-2.99c-.07-.61-.38-.98-.83-1.14v2.53c1.75.49,3.99.96,3.99,3.5,0,1.77-1.41,3.32-3.99,3.43Z"/>
</svg>