<?xml version="1.0" encoding="UTF-8"?>
<svg id="Layer_1" xmlns="http://www.w3.org/2000/svg" version="1.1" viewBox="0 0 30 30">
  <!-- Generator: Adobe Illustrator 30.3.0, SVG Export Plug-In . SVG Version: 2.1.3 Build 182)  -->
  <defs>
    <style>
      .st0 {
        fill: #fff;
      }
    </style>
  </defs>
  <path class="st0" d="M15,0C6.72,0,0,6.72,0,15s6.72,15,15,15,15-6.72,15-15S23.28,0,15,0ZM20.41,10.93c0,.15-.11.27-.27.27h-5.3v2.59h4.83c.14,0,.25.11.25.25v2.01c0,.15-.11.27-.27.27h-4.83v1.32h2.32c.09,0,.16.07.16.16v1.34c0,.09-.07.16-.16.16h-2.32v1.9c0,.18-.09.27-.25.27h-2.56c-.16,0-.24-.08-.24-.27v-1.9h-2.03c-.09,0-.16-.07-.16-.16v-1.34c0-.09.07-.16.16-.16h2.03v-8.87c0-.14.11-.24.24-.24h8.12c.14,0,.25.11.25.25v2.15h.02Z"/>
</svg>