<?xml version="1.0" encoding="UTF-8"?>
<svg id="Layer_1" xmlns="http://www.w3.org/2000/svg" version="1.1" viewBox="0 0 30 30">
  <!-- Generator: Adobe Illustrator 30.3.0, SVG Export Plug-In . SVG Version: 2.1.3 Build 182)  -->
  <defs>
    <style>
      .st0 {
        fill: #fff;
      }
    </style>
  </defs>
  <path class="st0" d="M15,0C6.72,0,0,6.72,0,15s6.72,15,15,15,15-6.72,15-15S23.28,0,15,0ZM14.88,21.53h-4.38v-5.82h-1.54v-1.43h1.54v-5.82h3.76c.89,0,6.77-.18,6.77,6.64s-6.15,6.42-6.15,6.42Z"/>
  <path class="st0" d="M14.7,10.88h-1.73v3.4h2.72v1.43h-2.72v3.4h1.81c.47,0,3.82.05,3.82-3.96,0-4.01-3.25-4.27-3.9-4.27Z"/>
</svg>