<?xml version="1.0" encoding="UTF-8"?>
<svg id="Layer_1" xmlns="http://www.w3.org/2000/svg" version="1.1" viewBox="0 0 30 30">
  <!-- Generator: Adobe Illustrator 30.2.1, SVG Export Plug-In . SVG Version: 2.1.1 Build 1)  -->
  <defs>
    <style>
      .st0 {
        fill: #fff;
      }
    </style>
  </defs>
  <path class="st0" d="M15,0C6.72,0,0,6.72,0,15s6.72,15,15,15,15-6.72,15-15S23.28,0,15,0ZM10.45,21.38c-.91.52-2.37-.31-3.27-1.87-.9-1.56-.89-3.24.01-3.76.91-.52,2.37.31,3.27,1.87.9,1.56.89,3.24-.01,3.76ZM10.47,12.38c-.9,1.56-2.36,2.39-3.27,1.87-.91-.52-.91-2.21-.01-3.76.9-1.56,2.36-2.39,3.27-1.87.91.52.91,2.21.01,3.76ZM15,24.02c-1.8,0-3.25-.85-3.25-1.89s1.46-1.89,3.25-1.89,3.25.85,3.25,1.89-1.46,1.89-3.25,1.89ZM15,9.76c-1.8,0-3.25-.85-3.25-1.89s1.46-1.89,3.25-1.89,3.25.85,3.25,1.89-1.46,1.89-3.25,1.89ZM22.81,19.51c-.9,1.56-2.36,2.39-3.26,1.87-.9-.52-.91-2.21-.01-3.76.9-1.56,2.36-2.39,3.26-1.87.9.52.91,2.21.01,3.76ZM22.8,14.25c-.9.52-2.37-.32-3.26-1.87-.9-1.56-.89-3.24.01-3.76.9-.52,2.37.32,3.26,1.87.9,1.56.89,3.24-.01,3.76Z"/>
</svg>