<?xml version="1.0" encoding="UTF-8"?>
<svg id="Layer_1" xmlns="http://www.w3.org/2000/svg" version="1.1" viewBox="0 0 30 30">
  <!-- Generator: Adobe Illustrator 30.1.0, SVG Export Plug-In . SVG Version: 2.1.1 Build 136)  -->
  <defs>
    <style>
      .st0 {
        fill: #fff;
      }
    </style>
  </defs>
  <path class="st0" d="M15,0C6.72,0,0,6.72,0,15s6.72,15,15,15,15-6.72,15-15S23.28,0,15,0ZM15.83,12.87v1.59h-3.44c-.02.16-.02.33-.02.51,0,.16,0,.32.02.48h3.44v1.57h-2.98c.53.95,1.47,1.5,2.63,1.5s2.08-.55,2.6-1.57h3.32c-.71,2.68-2.93,4.32-5.88,4.32s-5.17-1.68-5.93-4.25h-1.38v-1.57h1.11c-.02-.16-.02-.32-.02-.48,0-.18,0-.35.02-.51h-1.11v-1.59h1.39c.78-2.56,2.98-4.22,5.91-4.22s5.17,1.66,5.88,4.34h-3.32c-.51-1.02-1.45-1.55-2.6-1.55s-2.07.53-2.59,1.43h2.95Z"/>
</svg>