<?xml version="1.0" encoding="UTF-8"?>
<svg id="Layer_1" xmlns="http://www.w3.org/2000/svg" version="1.1" viewBox="0 0 30 30">
  <!-- Generator: Adobe Illustrator 30.3.0, SVG Export Plug-In . SVG Version: 2.1.3 Build 182)  -->
  <defs>
    <style>
      .st0 {
        fill: #fff;
      }
    </style>
  </defs>
  <path class="st0" d="M17.47,15.58c-.39,0-.54.3-.54.81v4.66c0,.53.15.83.54.83s.54-.32.54-.86v-4.66c0-.45-.12-.78-.54-.78Z"/>
  <path class="st0" d="M14.37,7.62h-.2v1.75h.16c.43,0,.6-.13.6-.76v-.32c0-.45-.09-.67-.56-.67Z"/>
  <path class="st0" d="M11.35,19.73h.9v-1.03c0-1,.07-2.16.08-2.95h-.04c-.28,1.21-.62,2.76-.94,3.99Z"/>
  <path class="st0" d="M18.47,7.76c-.02.46-.18,1.97-.27,2.79h.61c-.1-.85-.23-2.15-.29-2.79h-.05Z"/>
  <path class="st0" d="M15,0C6.72,0,0,6.72,0,15s6.72,15,15,15,15-6.72,15-15S23.28,0,15,0ZM9.56,6.6h2.77v1.13h-1.48v1.52h1.4v1.13h-1.4v2.88h-1.29v-6.67ZM14.39,21.17h-.48v2.1h-1.66v-2.1h-2.5v-1.37l1.65-5.62h2.51v5.54h.6l-.12,1.45ZM14.97,13.27c-.08-.3-.08-1.17-.08-2.02,0-.75-.09-.88-.57-.88h-.15v2.9h-1.28v-6.67h1.66c1.12,0,1.67.49,1.67,1.66v.24c0,.95-.38,1.23-.67,1.37.42.2.61.51.61,1.44,0,.64-.01,1.62.05,1.97h-1.24ZM19.78,20.83c0,1.42-.51,2.56-2.36,2.56s-2.26-1.19-2.26-2.55v-4.24c0-1.64.81-2.54,2.32-2.54s2.3.91,2.3,2.47v4.31ZM19.1,13.27l-.18-1.59h-.83l-.16,1.59h-1.31l.94-6.67h1.91l.97,6.67h-1.33Z"/>
</svg>