<?xml version="1.0" encoding="UTF-8"?>
<svg id="Layer_1" xmlns="http://www.w3.org/2000/svg" version="1.1" viewBox="0 0 30 30">
  <!-- Generator: Adobe Illustrator 30.1.0, SVG Export Plug-In . SVG Version: 2.1.1 Build 136)  -->
  <defs>
    <style>
      .st0 {
        fill: #fff;
      }
    </style>
  </defs>
  <path class="st0" d="M15,0C6.72,0,0,6.72,0,15s6.72,15,15,15,15-6.72,15-15S23.28,0,15,0ZM19.67,21.35h-8.63l-.41-1.42c1.03-.91,1.54-1.86,1.54-3.47v-.03h-1.84v-1.95h1.37c-.17-.61-.32-1.3-.32-2.11,0-2.35,1.69-3.72,4.09-3.72,2.72,0,4.04,1.69,4.13,3.84h-2.66c-.03-.85-.42-1.47-1.4-1.47-.88,0-1.42.53-1.42,1.64,0,.57.19,1.2.37,1.83h3.06v1.95h-2.64v.05c0,.76-.27,1.84-1.12,2.61h5.87v2.27-.02Z"/>
</svg>