<?xml version="1.0" encoding="UTF-8"?>
<svg id="Layer_1" xmlns="http://www.w3.org/2000/svg" version="1.1" viewBox="0 0 30 30">
  <!-- Generator: Adobe Illustrator 30.3.0, SVG Export Plug-In . SVG Version: 2.1.3 Build 182)  -->
  <defs>
    <style>
      .st0 {
        fill: #fff;
      }
    </style>
  </defs>
  <path class="st0" d="M11.48,19.78h.9v-1.03c0-1,.07-2.16.08-2.95h-.04c-.28,1.21-.62,2.76-.94,3.99Z"/>
  <path class="st0" d="M18.58,7.67h-.2v1.75h.16c.43,0,.6-.13.6-.76v-.32c0-.45-.09-.67-.56-.67Z"/>
  <path class="st0" d="M17.6,15.63c-.39,0-.54.3-.54.81v4.66c0,.53.15.83.54.83s.54-.32.54-.86v-4.66c0-.45-.12-.78-.54-.78Z"/>
  <path class="st0" d="M15,0C6.72,0,0,6.72,0,15s6.72,15,15,15,15-6.72,15-15S23.28,0,15,0ZM9.57,8.42c0-1.02.42-1.87,1.7-1.87,1.54,0,1.69,1.12,1.69,1.79v.3h-1.29v-.37c0-.32-.04-.62-.4-.62-.29,0-.4.21-.4.65v3.42c0,.45.15.62.4.62.31,0,.42-.24.42-.79v-.96h-.44v-1.08h1.73v3.81h-.96c-.03-.12-.05-.35-.06-.49-.21.47-.64.59-1.05.59-1.04,0-1.33-.77-1.33-1.86v-3.14ZM14.52,21.22h-.48v2.1h-1.66v-2.1h-2.5v-1.37l1.65-5.62h2.51v5.54h.6l-.12,1.45ZM13.74,13.32v-6.67h2.73v1.13h-1.45v1.46h1.38v1.13h-1.38v1.82h1.61l-.15,1.13h-2.74ZM19.91,20.88c0,1.42-.51,2.56-2.36,2.56s-2.26-1.19-2.26-2.55v-4.24c0-1.64.81-2.54,2.32-2.54s2.3.91,2.3,2.47v4.31ZM20.43,8.55c0,.95-.38,1.23-.67,1.37.42.2.61.51.61,1.44,0,.64-.01,1.62.05,1.97h-1.24c-.08-.3-.08-1.17-.08-2.02,0-.75-.09-.88-.57-.88h-.15v2.9h-1.28v-6.67h1.66c1.12,0,1.67.49,1.67,1.66v.24Z"/>
</svg>