<?xml version="1.0" encoding="UTF-8"?>
<svg id="Layer_1" xmlns="http://www.w3.org/2000/svg" version="1.1" viewBox="0 0 30 30">
  <!-- Generator: Adobe Illustrator 30.2.1, SVG Export Plug-In . SVG Version: 2.1.1 Build 1)  -->
  <defs>
    <style>
      .st0 {
        fill: #fff;
      }
    </style>
  </defs>
  <path class="st0" d="M15,0C6.72,0,0,6.72,0,15s6.72,15,15,15,15-6.72,15-15S23.28,0,15,0ZM15.2,23.8c-4.88,0-8.8-3.92-8.8-8.8s3.92-8.8,8.8-8.8c2.24,0,4.24.84,5.8,2.2l-2.56,2.56c-.88-.72-2-1.16-3.24-1.16-2.88,0-5.2,2.32-5.2,5.2s2.32,5.2,5.2,5.2c2.44,0,4.28-1.24,4.72-3.4h-4.72v-3.4h8.2c.12.52.2,1.08.2,1.6,0,5.6-4,8.8-8.4,8.8Z"/>
</svg>