<?xml version="1.0" encoding="UTF-8"?>
<svg id="Layer_1" xmlns="http://www.w3.org/2000/svg" version="1.1" viewBox="0 0 30 30">
  <!-- Generator: Adobe Illustrator 30.3.0, SVG Export Plug-In . SVG Version: 2.1.3 Build 182)  -->
  <defs>
    <style>
      .st0 {
        fill: #fff;
      }
    </style>
  </defs>
  <path class="st0" d="M15,0C6.72,0,0,6.72,0,15s6.72,15,15,15,15-6.72,15-15S23.28,0,15,0ZM10.05,6.6h1.28v2.57h.84v-2.57h1.29v6.67h-1.29v-2.97h-.84v2.97h-1.28v-6.67ZM14.63,20.56c0,1.54-.47,2.82-2.35,2.82s-2.3-1.16-2.3-2.39v-.26h1.74v.46c0,.39.1.78.53.78s.54-.31.54-1.08v-1.31c0-.69-.13-.94-.53-.94-.38,0-.52.23-.57.82l-1.61-.13c.13-1.37.29-3.6.38-5.14h3.96l-.18,1.54h-2.22c-.03.62-.09,1.39-.13,1.83.19-.26.64-.4,1.08-.4,1.19,0,1.65.86,1.65,2.29v1.12ZM14.26,13.27v-6.67h1.24v2.91h.02c.21-.63.65-1.99.95-2.91h1.41l-1.12,2.58,1.16,4.09h-1.39l-.66-2.81-.38.85v1.96h-1.24ZM20.02,20.83c0,1.42-.51,2.56-2.36,2.56s-2.26-1.19-2.26-2.55v-4.24c0-1.64.81-2.54,2.32-2.54s2.3.91,2.3,2.47v4.31Z"/>
  <path class="st0" d="M17.71,15.58c-.39,0-.55.3-.55.81v4.66c0,.53.15.83.55.83s.54-.32.54-.86v-4.66c0-.45-.12-.78-.54-.78Z"/>
</svg>