<?xml version="1.0" encoding="UTF-8"?>
<svg id="Layer_1" xmlns="http://www.w3.org/2000/svg" version="1.1" viewBox="0 0 30 30">
  <!-- Generator: Adobe Illustrator 30.3.0, SVG Export Plug-In . SVG Version: 2.1.3 Build 182)  -->
  <defs>
    <style>
      .st0 {
        fill: #fff;
      }
    </style>
  </defs>
  <path class="st0" d="M15,0C6.72,0,0,6.72,0,15s6.72,15,15,15,15-6.72,15-15S23.28,0,15,0ZM10.26,6.61h1.71c1.11,0,1.66.59,1.66,1.77v.41c0,1.17-.44,1.87-1.71,1.87h-.38v2.62h-1.29v-6.67ZM7.51,12.26c.07,0,.18.02.29.02.34,0,.43-.11.43-.51v-5.16h1.29v5.02c0,1.01-.13,1.74-1.43,1.74-.19,0-.43-.02-.58-.04v-1.07ZM11.99,23.28h-4.3v-.22c0-1.77.67-2.86,1.52-4.11.8-1.16,1.06-1.48,1.06-2.48,0-.67-.07-.96-.48-.96-.37,0-.5.29-.5.9v.54h-1.62v-.49c0-1.08.33-2.39,2.2-2.39,1.68,0,2.17,1.03,2.17,2.42s-.48,2.03-1.34,3.23c-.45.6-.96,1.41-1.03,2.03h2.53l-.21,1.53ZM17.06,23.28h-4.3v-.22c0-1.77.67-2.86,1.52-4.11.8-1.16,1.06-1.48,1.06-2.48,0-.67-.07-.96-.48-.96-.37,0-.49.29-.49.9v.54h-1.62v-.49c0-1.08.33-2.39,2.2-2.39,1.68,0,2.17,1.03,2.17,2.42s-.49,2.03-1.34,3.23c-.45.6-.96,1.41-1.03,2.03h2.53l-.21,1.53ZM22.49,20.57c0,1.54-.47,2.82-2.35,2.82s-2.3-1.16-2.3-2.39v-.26h1.74v.46c0,.39.1.78.53.78s.54-.31.54-1.08v-1.31c0-.69-.13-.94-.53-.94-.38,0-.52.23-.57.82l-1.61-.13c.13-1.37.29-3.6.38-5.14h3.96l-.18,1.54h-2.22c-.03.62-.09,1.39-.13,1.83.19-.26.64-.4,1.08-.4,1.19,0,1.65.86,1.65,2.29v1.12Z"/>
  <path class="st0" d="M12.34,8.79v-.46c0-.43-.1-.71-.53-.71h-.27v2h.21c.49,0,.59-.27.59-.83Z"/>
</svg>