<?xml version="1.0" encoding="UTF-8"?>
<svg id="Layer_1" xmlns="http://www.w3.org/2000/svg" version="1.1" viewBox="0 0 30 30">
  <!-- Generator: Adobe Illustrator 30.3.0, SVG Export Plug-In . SVG Version: 2.1.3 Build 182)  -->
  <defs>
    <style>
      .st0 {
        fill: #fff;
      }
    </style>
  </defs>
  <polygon class="st0" points="10.96 12.67 10.96 17.33 15 19.67 19.04 17.33 19.04 12.67 15 10.33 10.96 12.67"/>
  <path class="st0" d="M15,0C6.72,0,0,6.72,0,15s6.72,15,15,15,15-6.72,15-15S23.28,0,15,0ZM22,19.04l-1.48.85-4,2.33-1.48.85-1.48-.85-4.07-2.33-1.48-.85v-8.07l1.48-.85,4.04-2.33,1.48-.85,1.48.85,4.04,2.33,1.48.85v8.07Z"/>
</svg>