<?xml version="1.0" encoding="UTF-8"?>
<svg id="Layer_1" xmlns="http://www.w3.org/2000/svg" version="1.1" viewBox="0 0 30 30">
  <!-- Generator: Adobe Illustrator 30.3.0, SVG Export Plug-In . SVG Version: 2.1.3 Build 182)  -->
  <defs>
    <style>
      .st0 {
        fill: #fff;
      }
    </style>
  </defs>
  <path class="st0" d="M17.72,12.41c0,.57.39.92.98,1.18v-2.27c-.61.1-.98.46-.98,1.1Z"/>
  <path class="st0" d="M19.74,16.37v2.32c.65-.11,1.06-.56,1.06-1.16s-.43-.92-1.06-1.16Z"/>
  <path class="st0" d="M15,0C6.72,0,0,6.72,0,15s6.72,15,15,15,15-6.72,15-15S23.28,0,15,0ZM10.06,21h-1.23v-2.12c0-1.03,0-2.5.03-3.31h-.03c-.14,1.33-.43,4.04-.62,5.44h-1.09c-.15-1.46-.44-4.21-.57-5.46h-.04c.02.78.05,2.23.05,3.38v2.08h-1.16v-6.67h1.84c.17,1.27.37,2.93.44,3.84h.03c.1-.97.32-2.37.53-3.84h1.83v6.67ZM12.69,21c-.02-.24-.44-2.01-.46-2.29h-.03c-.01.22-.48,2.09-.49,2.29h-1.29l1-3.33-.97-3.34h1.37c.01.15.4,1.94.41,2.11h.04c.01-.18.43-1.96.44-2.11h1.29l-.97,3.13,1.04,3.54h-1.37ZM19.74,20.86v1.32h-1.05v-1.34c-2.22-.2-3.84-1.36-3.93-3.47h2.98c.07.67.39,1.08.95,1.26v-2.58c-1.75-.46-3.94-.95-3.94-3.52,0-2.04,1.72-3.25,3.94-3.4v-1.32h1.05v1.32c2.24.18,3.68,1.32,3.83,3.4h-2.99c-.07-.61-.38-.98-.83-1.14v2.53c1.75.49,3.99.96,3.99,3.5,0,1.77-1.41,3.32-3.99,3.43Z"/>
</svg>