<?xml version="1.0" encoding="UTF-8"?>
<svg id="Layer_1" xmlns="http://www.w3.org/2000/svg" version="1.1" viewBox="0 0 30 30">
  <!-- Generator: Adobe Illustrator 30.1.0, SVG Export Plug-In . SVG Version: 2.1.1 Build 136)  -->
  <defs>
    <style>
      .st0 {
        fill: #fff;
      }
    </style>
  </defs>
  <path class="st0" d="M15,0C6.72,0,0,6.72,0,15s6.72,15,15,15,15-6.72,15-15S23.28,0,15,0ZM8.49,19.06c0-3.88,6.79-6.98,6.79-9.79s-1.6-4.04-1.6-4.04c0,0,4.43,2.57,4.43,5.91s-5.35,6.04-5.35,9.01,2.53,4.61,2.53,4.61c0,0-6.79-1.84-6.79-5.71ZM15.03,19.87c.65-2.2,2.85-3.83,4.12-6,1.26-2.16.3-3.3.3-3.3,0,0,1.1.53,1.05,3.22-.04,2.69-1.05,3.63-3.17,5.79-2.11,2.16-1.55,3.34-1.55,3.34,0,0-1.39-.86-.74-3.06ZM21.43,20.2c-.38,1.1-1.35,1.84-2.99,2.73-1.64.9-1.69,1.63-1.69,1.63,0,0-.04-.65.34-1.63.38-.98,2.19-2.24,3.12-3.26s.59-2.92.59-2.92c0,0,1.01,2.35.63,3.45Z"/>
</svg>