<?xml version="1.0" encoding="UTF-8"?>
<svg id="Layer_1" xmlns="http://www.w3.org/2000/svg" version="1.1" viewBox="0 0 30 30">
  <!-- Generator: Adobe Illustrator 30.2.1, SVG Export Plug-In . SVG Version: 2.1.1 Build 1)  -->
  <defs>
    <style>
      .st0 {
        fill: #fff;
      }
    </style>
  </defs>
  <path class="st0" d="M7.04,14.08s1.38,4.45,5.42,4.96v-1.1c-3.05-.54-3.9-3.72-3.9-3.72,0,0,1.46-1.62,3.9-1.89v1.03c1.27.15,1.53.72,2.29,1.99l1.7-1.44s-1.24-1.63-3.34-1.63c-.23,0-.45.02-.66.04v-1.2c.12,0,.23-.01.35-.02,3.27-.1,5.41,2.81,5.41,2.81,0,0-2.32,3.22-4.8,3.22-.36,0-.68-.06-.97-.15v-3.62s0,0,0,0c-1.28-.15-2.27,1.04-2.27,1.04,0,0,.56,2.01,2.28,2.59v.94c.29.05.59.08.91.08,3.54,0,6.95-4.14,6.95-4.14,0,0-2.96-3.88-7.51-3.73-.12,0-.24.01-.35.02v.97c-3.61.28-5.42,2.94-5.42,2.94Z"/>
  <path class="st0" d="M13.27,20.11c2.9,0,8.02-1.48,10.22-3.32-.32-.33-1.89-1.07-2.27-1.38-2.31,1.99-4.7,3.68-7.99,3.68-.25,0-.51-.02-.76-.05v1.03c.26.03.53.04.81.04Z"/>
  <path class="st0" d="M15,0C6.72,0,0,6.72,0,15s6.72,15,15,15,15-6.72,15-15S23.28,0,15,0ZM25,21.62h-12.54v-1.55c-5.5-.52-7.46-6.19-7.46-6.19,0,0,3.46-3.39,7.46-3.71v-1.79h12.54v13.23Z"/>
</svg>