<?xml version="1.0" encoding="UTF-8"?>
<svg id="Layer_1" xmlns="http://www.w3.org/2000/svg" version="1.1" viewBox="0 0 30 30">
  <!-- Generator: Adobe Illustrator 30.3.0, SVG Export Plug-In . SVG Version: 2.1.3 Build 182)  -->
  <defs>
    <style>
      .st0 {
        fill: #fff;
      }
    </style>
  </defs>
  <path class="st0" d="M15,0C6.72,0,0,6.72,0,15s6.72,15,15,15,15-6.72,15-15S23.28,0,15,0ZM15.8,21.27h-7.8v-2.2c.38-.4,3.53-3.96,4.07-4.53h-3.88v-2.34h7.63v2.29c-.39.46-3.58,4.07-3.91,4.43h4.29l-.4,2.34ZM22,14.35l-1.06.52v6.4h-3.37v-4.76l-.99.48v-2.24l.99-.48v-5.53h3.37v3.89l1.06-.52v2.25Z"/>
</svg>