<?xml version="1.0" encoding="UTF-8"?>
<svg id="Layer_1" xmlns="http://www.w3.org/2000/svg" version="1.1" viewBox="0 0 30 30">
  <!-- Generator: Adobe Illustrator 30.3.0, SVG Export Plug-In . SVG Version: 2.1.3 Build 182)  -->
  <defs>
    <style>
      .st0 {
        fill: #fff;
      }
    </style>
  </defs>
  <path class="st0" d="M15,0C6.72,0,0,6.72,0,15s6.72,15,15,15,15-6.72,15-15S23.28,0,15,0ZM13.34,20.46l-2.61-4.38-.97.99v3.38h-3.18v-10.91h3.18v4.43c.71-1,2.33-2.99,3.4-4.43h3.79l-4.01,4.47,4.15,6.44h-3.75ZM23.42,14.77c-1.75-.07-2.54.32-2.54,2.27v3.41h-3.09v-5.92c0-.8,0-1.65-.02-2.38h3.02c.04.26.07.99.07,1.35.32-.8,1.13-1.54,2.55-1.55v2.82Z"/>
</svg>