<?xml version="1.0" encoding="UTF-8"?>
<svg id="Layer_1" xmlns="http://www.w3.org/2000/svg" version="1.1" viewBox="0 0 30 30">
  <!-- Generator: Adobe Illustrator 30.3.0, SVG Export Plug-In . SVG Version: 2.1.3 Build 182)  -->
  <defs>
    <style>
      .st0 {
        fill: #fff;
      }
    </style>
  </defs>
  <path class="st0" d="M15.6,12.23c0,.57.39.92.98,1.18v-2.27c-.61.1-.98.46-.98,1.1Z"/>
  <path class="st0" d="M17.63,16.19v2.32c.65-.11,1.06-.56,1.06-1.16s-.43-.92-1.06-1.16Z"/>
  <path class="st0" d="M15-.17C6.72-.17,0,6.54,0,14.83s6.72,15,15,15,15-6.72,15-15S23.28-.17,15-.17ZM10.09,20.91c-1.35,0-1.55-.83-1.55-1.59v-.19h1.23v.25c0,.29.06.53.33.53.2,0,.3-.13.3-.41s-.07-.49-.69-.88c-.79-.5-1.1-.88-1.1-1.64,0-.96.53-1.49,1.5-1.49,1.18,0,1.5.65,1.5,1.54v.22h-1.18v-.32c0-.33-.09-.45-.28-.45s-.28.14-.28.38.11.37.56.65c.97.6,1.27,1.03,1.27,1.81,0,1.03-.46,1.6-1.59,1.6ZM17.63,20.69v1.32h-1.05v-1.34c-2.22-.2-3.84-1.36-3.93-3.47h2.98c.07.67.39,1.08.95,1.26v-2.58c-1.75-.46-3.94-.95-3.94-3.52,0-2.04,1.72-3.25,3.94-3.4v-1.32h1.05v1.32c2.24.18,3.68,1.32,3.83,3.4h-2.99c-.07-.61-.38-.98-.83-1.14v2.53c1.75.49,3.99.96,3.99,3.5,0,1.77-1.41,3.32-3.99,3.43Z"/>
</svg>