<?xml version="1.0" encoding="UTF-8"?>
<svg id="Layer_1" xmlns="http://www.w3.org/2000/svg" version="1.1" viewBox="0 0 30 30">
  <!-- Generator: Adobe Illustrator 30.1.0, SVG Export Plug-In . SVG Version: 2.1.1 Build 136)  -->
  <defs>
    <style>
      .st0 {
        fill: #fff;
      }
    </style>
  </defs>
  <path class="st0" d="M15,0C6.72,0,0,6.72,0,15s6.72,15,15,15,15-6.72,15-15S23.28,0,15,0ZM22.41,18.36l-2.36,2.36c-.09.09-.21.14-.35.14H7.76c-.22,0-.33-.26-.17-.42l2.36-2.36c.09-.09.21-.14.35-.14h11.94c.22,0,.33.26.17.42ZM22.24,16.43h-11.94c-.13,0-.26-.05-.35-.14l-2.36-2.36c-.15-.15-.05-.42.17-.42h11.94c.13,0,.26.05.35.14l2.36,2.36c.15.15.05.42-.17.42ZM22.41,9.55l-2.36,2.36c-.09.09-.21.14-.35.14H7.76c-.22,0-.33-.26-.17-.42l2.36-2.36c.09-.09.22-.14.35-.14h11.94c.22,0,.33.26.17.42Z"/>
</svg>