<?xml version="1.0" encoding="UTF-8"?>
<svg id="Layer_1" xmlns="http://www.w3.org/2000/svg" version="1.1" viewBox="0 0 30 30">
  <!-- Generator: Adobe Illustrator 30.3.0, SVG Export Plug-In . SVG Version: 2.1.3 Build 182)  -->
  <defs>
    <style>
      .st0 {
        fill: #fff;
      }
    </style>
  </defs>
  <path class="st0" d="M15,0C6.72,0,0,6.72,0,15s6.72,15,15,15,15-6.72,15-15S23.28,0,15,0ZM20.11,18.18c-.55.92-1.38,1.63-2.47,2.13-1.09.5-2.44.75-4.06.75h-2.79v-4.18l-1.73.91v-1.51l1.73-.91v-.97l-1.73.91v-1.49l1.73-.91v-3.97h2.77v2.51l4.21-2.22v1.49l-4.21,2.22v.97l4.21-2.22v1.5l-4.21,2.22v3.37h.64c1.33,0,2.31-.34,2.95-1.03.64-.69.96-1.64.96-2.86h2.8c.01,1.27-.26,2.36-.81,3.28Z"/>
</svg>