<?xml version="1.0" encoding="UTF-8"?>
<svg id="Layer_1" xmlns="http://www.w3.org/2000/svg" version="1.1" viewBox="0 0 30 30">
  <!-- Generator: Adobe Illustrator 30.2.1, SVG Export Plug-In . SVG Version: 2.1.1 Build 1)  -->
  <defs>
    <style>
      .st0 {
        fill: #fff;
      }
    </style>
  </defs>
  <path class="st0" d="M29.88,13.05C29.03,6.36,23.64.97,16.95.12,7.14-1.11-1.11,7.14.12,16.95c.84,6.69,6.24,12.08,12.93,12.93,9.81,1.24,18.06-7.01,16.83-16.83ZM20.42,12.77c-.1-1.01-.81-1.25-3.05-1.25l-2.35,13.23-2.38-13.23c-2.23,0-2.93.24-3.03,1.25,0,0-1.51-.56-2.26-1.7,2.96-1.37,5.94-1.44,5.94-1.44l1.74,2.12,1.73-2.12s2.97.06,5.94,1.44c-.75,1.14-2.26,1.7-2.26,1.7ZM22.93,10.61c-2.8-1.22-5.54-1.61-7.93-1.59-2.38-.02-5.12.37-7.93,1.59-.34-.6-.47-.97-.47-.97,3.06-1.21,5.94-1.63,8.4-1.64,2.47.01,5.35.43,8.4,1.64,0,0-.09.3-.47.97Z"/>
</svg>