<?xml version="1.0" encoding="UTF-8"?>
<svg id="Layer_1" xmlns="http://www.w3.org/2000/svg" version="1.1" viewBox="0 0 30 30">
  <!-- Generator: Adobe Illustrator 30.3.0, SVG Export Plug-In . SVG Version: 2.1.3 Build 182)  -->
  <defs>
    <style>
      .st0 {
        fill: #fff;
      }
    </style>
  </defs>
  <path class="st0" d="M15,0C6.72,0,0,6.72,0,15s6.72,15,15,15,15-6.72,15-15S23.28,0,15,0ZM12.61,6.6h1.24v2.91h.02c.21-.63.65-1.99.95-2.91h1.41l-1.12,2.58,1.16,4.09h-1.39l-.66-2.81-.38.85v1.96h-1.24v-6.67ZM10.76,23.27h-1.8v-7.17c-.26,0-.61-.03-.78-.06v-1.29c.58-.05.98-.29,1.23-.61h1.35v9.13ZM10.12,13.37c-1.16,0-1.68-.57-1.68-1.78v-4.98h1.29v5.08c0,.39.12.6.41.6.31,0,.41-.24.41-.6v-5.08h1.3v5c0,1.18-.54,1.77-1.72,1.77ZM16.45,20.83c0,1.42-.51,2.56-2.36,2.56s-2.26-1.19-2.26-2.55v-4.24c0-1.64.81-2.54,2.32-2.54s2.3.91,2.3,2.47v4.31ZM21.82,20.83c0,1.42-.51,2.56-2.36,2.56s-2.26-1.19-2.26-2.55v-4.24c0-1.64.81-2.54,2.32-2.54s2.3.91,2.3,2.47v4.31Z"/>
  <path class="st0" d="M19.51,15.58c-.39,0-.55.3-.55.81v4.66c0,.53.15.83.55.83s.54-.32.54-.86v-4.66c0-.45-.12-.78-.54-.78Z"/>
  <path class="st0" d="M14.13,15.58c-.39,0-.54.3-.54.81v4.66c0,.53.15.83.54.83s.54-.32.54-.86v-4.66c0-.45-.12-.78-.54-.78Z"/>
</svg>