<?xml version="1.0" encoding="UTF-8"?>
<svg id="Layer_1" xmlns="http://www.w3.org/2000/svg" version="1.1" viewBox="0 0 30 30">
  <!-- Generator: Adobe Illustrator 30.3.0, SVG Export Plug-In . SVG Version: 2.1.3 Build 182)  -->
  <defs>
    <style>
      .st0 {
        fill: #fff;
      }
    </style>
  </defs>
  <path class="st0" d="M17.64,15.63c-.39,0-.55.3-.55.81v4.66c0,.53.15.83.55.83s.54-.32.54-.86v-4.66c0-.45-.12-.78-.54-.78Z"/>
  <path class="st0" d="M15,0C6.72,0,0,6.72,0,15s6.72,15,15,15,15-6.72,15-15S23.28,0,15,0ZM10.11,6.66h1.29v5.08c0,.39.12.6.41.6.31,0,.41-.24.41-.6v-5.08h1.3v5c0,1.18-.54,1.77-1.72,1.77s-1.68-.57-1.68-1.78v-4.98ZM14.61,20.94c0,1.53-.58,2.5-2.33,2.5s-2.22-.97-2.22-2.26v-.35h1.64v.39c0,.43.11.81.57.81s.56-.4.56-.88v-.94c0-.74-.22-1.02-.92-1.02h-.49v-1.46h.52c.57,0,.78-.21.78-.9v-.54c0-.44-.06-.78-.47-.78s-.5.32-.5.74v.5h-1.59v-.4c0-1.09.38-2.22,2.15-2.22,1.51,0,2.13.85,2.13,2.17v.34c0,1.05-.4,1.54-.93,1.75v.02c.59.22,1.12.69,1.12,1.81v.72ZM14.07,11.67v-.4h1.26v.46c0,.44.11.64.4.64s.37-.3.37-.62c0-.63-.12-.81-.8-1.38-.75-.64-1.14-1.01-1.14-2s.31-1.83,1.58-1.83c1.34,0,1.54.92,1.54,1.68v.38h-1.21v-.4c0-.4-.07-.6-.32-.6-.24,0-.31.2-.31.58,0,.4.07.6.62,1.03.98.77,1.33,1.2,1.33,2.3s-.36,1.9-1.68,1.9-1.63-.77-1.63-1.76ZM19.95,20.89c0,1.42-.51,2.56-2.36,2.56s-2.26-1.19-2.26-2.55v-4.24c0-1.64.81-2.54,2.32-2.54s2.3.91,2.3,2.47v4.31Z"/>
</svg>