<?xml version="1.0" encoding="UTF-8"?>
<svg id="Layer_1" xmlns="http://www.w3.org/2000/svg" version="1.1" viewBox="0 0 30 30">
  <!-- Generator: Adobe Illustrator 30.3.0, SVG Export Plug-In . SVG Version: 2.1.3 Build 182)  -->
  <defs>
    <style>
      .st0 {
        fill: #fff;
      }
    </style>
  </defs>
  <path class="st0" d="M20.4,15.63c-.39,0-.55.3-.55.81v4.66c0,.53.15.83.55.83s.54-.32.54-.86v-4.66c0-.45-.12-.78-.54-.78Z"/>
  <path class="st0" d="M15,0C6.72,0,0,6.72,0,15s6.72,15,15,15,15-6.72,15-15S23.28,0,15,0ZM11.28,11.27h1.26v.46c0,.44.11.64.4.64s.37-.3.37-.62c0-.63-.12-.81-.8-1.38-.75-.64-1.14-1.01-1.14-2s.32-1.83,1.58-1.83c1.34,0,1.54.92,1.54,1.68v.38h-1.21v-.4c0-.4-.07-.6-.32-.6-.24,0-.31.2-.31.58,0,.4.07.6.62,1.03.98.77,1.33,1.2,1.33,2.3s-.36,1.9-1.68,1.9-1.64-.77-1.64-1.76v-.4ZM7.33,6.66h1.29v5.08c0,.39.12.6.41.6.31,0,.4-.24.4-.6v-5.08h1.3v5c0,1.18-.54,1.77-1.72,1.77s-1.68-.57-1.68-1.78v-4.98ZM11.94,20.61c0,1.54-.47,2.82-2.35,2.82s-2.3-1.16-2.3-2.39v-.26h1.74v.46c0,.39.1.78.53.78s.54-.31.54-1.08v-1.31c0-.69-.13-.94-.53-.94-.38,0-.52.23-.57.82l-1.61-.13c.14-1.37.29-3.6.38-5.14h3.96l-.18,1.54h-2.22c-.03.62-.09,1.39-.13,1.83.19-.26.64-.4,1.08-.4,1.19,0,1.65.86,1.65,2.29v1.12ZM17.33,20.89c0,1.42-.51,2.56-2.36,2.56s-2.26-1.19-2.26-2.55v-4.24c0-1.64.81-2.54,2.32-2.54s2.3.91,2.3,2.47v4.31ZM22.71,20.89c0,1.42-.51,2.56-2.36,2.56s-2.26-1.19-2.26-2.55v-4.24c0-1.64.81-2.54,2.32-2.54s2.3.91,2.3,2.47v4.31Z"/>
  <path class="st0" d="M15.02,15.63c-.39,0-.55.3-.55.81v4.66c0,.53.15.83.55.83s.54-.32.54-.86v-4.66c0-.45-.12-.78-.54-.78Z"/>
</svg>