<?xml version="1.0" encoding="UTF-8"?>
<svg id="Layer_1" xmlns="http://www.w3.org/2000/svg" version="1.1" viewBox="0 0 30 30">
  <!-- Generator: Adobe Illustrator 30.1.0, SVG Export Plug-In . SVG Version: 2.1.1 Build 136)  -->
  <defs>
    <style>
      .st0 {
        fill: #fff;
      }
    </style>
  </defs>
  <path class="st0" d="M15,0C6.72,0,0,6.72,0,15s6.72,15,15,15,15-6.72,15-15S23.28,0,15,0ZM16.63,17.18v6.28h-3.24v-6.28c-3.64-.17-6.38-.89-6.38-1.75s2.74-1.59,6.38-1.75v-1.96h-4.48v-2.99h12.21v2.99h-4.48v1.96h0c3.64.17,6.37.89,6.37,1.75s-2.73,1.59-6.37,1.75Z"/>
  <path class="st0" d="M16.63,13.9v2.19c-.09,0-.59.05-1.59.05-.83,0-1.44-.04-1.65-.05v-2.19c-3.22.14-5.62.7-5.62,1.37s2.4,1.23,5.62,1.37h0c.21,0,.8.03,1.63.03,1.05,0,1.52-.03,1.61-.03h0s0,0,0,0c3.21-.14,5.61-.7,5.61-1.37s-2.4-1.23-5.61-1.37Z"/>
</svg>