<?xml version="1.0" encoding="UTF-8"?>
<svg id="Layer_1" xmlns="http://www.w3.org/2000/svg" version="1.1" viewBox="0 0 30 30">
  <!-- Generator: Adobe Illustrator 30.2.1, SVG Export Plug-In . SVG Version: 2.1.1 Build 1)  -->
  <defs>
    <style>
      .st0 {
        fill: #fff;
      }
    </style>
  </defs>
  <path class="st0" d="M15,0C6.72,0,0,6.72,0,15s6.72,15,15,15,15-6.72,15-15S23.28,0,15,0ZM15,23c-3.51,0-6.37-2.86-6.37-6.37,0-4.7,5.71-9.29,5.96-9.49.24-.19.59-.19.83,0h0c.24.19,5.96,4.78,5.96,9.49,0,3.51-2.86,6.37-6.37,6.37Z"/>
  <path class="st0" d="M15.5,19.17c-.37,0-.67.3-.67.67s.3.67.67.67c1.75,0,3.17-1.42,3.17-3.17,0-.37-.3-.67-.67-.67s-.67.3-.67.67c0,1.01-.82,1.83-1.83,1.83Z"/>
</svg>