<?xml version="1.0" encoding="UTF-8"?>
<svg id="Layer_1" xmlns="http://www.w3.org/2000/svg" version="1.1" viewBox="0 0 30 30">
  <!-- Generator: Adobe Illustrator 30.2.1, SVG Export Plug-In . SVG Version: 2.1.1 Build 1)  -->
  <defs>
    <style>
      .st0 {
        fill: #fff;
      }
    </style>
  </defs>
  <path class="st0" d="M13.25,15.79c-.06-.17-.22-.29-.4-.29h-4.2c-.18,0-.34.12-.4.29l-1.23,3.68s-.02.09-.02.13c0,.23.19.42.42.42h6.66c.13,0,.26-.06.34-.17h0c.08-.11.1-.25.06-.38l-1.23-3.68Z"/>
  <polygon class="st0" points="14.21 15.5 15 17.87 15.79 15.5 14.21 15.5"/>
  <path class="st0" d="M11.67,14.5h6.65s.09,0,.13-.02c.22-.07.34-.31.26-.53l-1.23-3.68c-.06-.17-.22-.29-.4-.29h-4.2c-.18,0-.34.12-.4.29l-1.23,3.68s-.02.09-.02.13c0,.23.19.42.42.42Z"/>
  <path class="st0" d="M15,0C6.72,0,0,6.72,0,15s6.72,15,15,15,15-6.72,15-15S23.28,0,15,0ZM22.58,21.03h-6.66c-.34,0-.66-.12-.92-.33-.26.22-.58.34-.92.33h-6.66c-.15,0-.3-.02-.45-.07-.75-.25-1.15-1.06-.9-1.8l1.23-3.68c.19-.58.74-.97,1.35-.97h1.66c-.09-.28-.08-.59.01-.87l1.23-3.68c.19-.58.74-.97,1.35-.97h4.2c.61,0,1.16.39,1.35.97l1.23,3.68c.09.28.1.59.01.87h1.66c.61,0,1.16.39,1.35.97l1.23,3.68c.05.15.07.3.07.45,0,.79-.64,1.42-1.42,1.42Z"/>
  <path class="st0" d="M21.74,15.79c-.06-.17-.22-.29-.4-.29h-4.2c-.18,0-.34.12-.4.29l-1.23,3.68s-.02.09-.02.13c0,.23.19.42.42.42h6.65c.13,0,.26-.06.34-.17h0c.08-.11.1-.25.06-.38l-1.23-3.68Z"/>
</svg>