<?xml version="1.0" encoding="UTF-8"?>
<svg id="Layer_1" xmlns="http://www.w3.org/2000/svg" version="1.1" viewBox="0 0 30 30">
  <!-- Generator: Adobe Illustrator 30.2.1, SVG Export Plug-In . SVG Version: 2.1.1 Build 1)  -->
  <defs>
    <style>
      .st0 {
        fill: #fff;
      }
    </style>
  </defs>
  <path class="st0" d="M13.7,15.65l1.29,3.88s0,.01,0,.02c0,0,0,0,0-.01l1.3-3.89c.09-.27.28-.48.53-.6h-3.65c.24.12.44.33.53.6Z"/>
  <path class="st0" d="M15,0C6.72,0,0,6.72,0,15s6.72,15,15,15,15-6.72,15-15S23.28,0,15,0ZM23.81,20.44h0c-.19.27-.5.43-.83.43h-7.01c-.46,0-.84-.3-.97-.72-.03.1-.08.2-.14.29h0c-.19.27-.5.43-.83.43h-7.01c-.56,0-1.02-.46-1.02-1.02,0-.1.02-.21.05-.31l1.3-3.89c.14-.42.53-.7.97-.7h2.74c-.34-.17-.58-.52-.58-.92,0-.1.02-.21.05-.32l1.3-3.89c.14-.42.53-.7.97-.7h4.42c.44,0,.83.28.97.7l1.29,3.88c.09.26.07.53-.05.78-.1.21-.27.37-.47.47h2.75c.44,0,.83.28.97.7l1.29,3.88c.1.31.05.65-.14.92Z"/>
</svg>