<?xml version="1.0" encoding="UTF-8"?>
<svg id="Layer_1" xmlns="http://www.w3.org/2000/svg" version="1.1" viewBox="0 0 30 30">
  <!-- Generator: Adobe Illustrator 30.1.0, SVG Export Plug-In . SVG Version: 2.1.1 Build 136)  -->
  <defs>
    <style>
      .st0 {
        fill: #fff;
      }
    </style>
  </defs>
  <path class="st0" d="M15,0C6.72,0,0,6.72,0,15s6.72,15,15,15,15-6.72,15-15S23.28,0,15,0ZM9.58,8.65l3.5,3.47c1.06,1.05,2.77,1.05,3.83,0l3.51-3.47h2.22l-4.61,4.57c-1.67,1.65-4.38,1.65-6.05,0l-4.61-4.57h2.22ZM20.45,21.35l-3.53-3.5c-1.06-1.05-2.77-1.05-3.83,0l-3.54,3.5h-2.22l4.64-4.6c1.67-1.65,4.38-1.65,6.05,0l4.64,4.6h-2.22Z"/>
</svg>