<?xml version="1.0" encoding="UTF-8"?>
<svg id="Layer_1" xmlns="http://www.w3.org/2000/svg" version="1.1" viewBox="0 0 30 30">
  <!-- Generator: Adobe Illustrator 30.3.0, SVG Export Plug-In . SVG Version: 2.1.3 Build 182)  -->
  <defs>
    <style>
      .st0 {
        fill: #fff;
      }
    </style>
  </defs>
  <path class="st0" d="M14.99,11.48h-1.63v2.55h1.62c1.16,0,1.59-.48,1.59-1.29s-.5-1.26-1.57-1.26Z"/>
  <path class="st0" d="M15,0C6.72,0,0,6.72,0,15s6.72,15,15,15,15-6.72,15-15S23.28,0,15,0ZM19.8,18.24v.5c0,.74.02,1.7.16,2.22h-3.33c-.2-.51-.25-1.38-.25-2.6v-.31c0-1.03-.25-1.59-1.79-1.59h-1.23v4.5h-3.39v-11.92h5.91c2.81,0,4.16,1.5,4.16,3.3,0,1.65-.96,2.49-1.79,2.83.75.26,1.55,1.06,1.55,3.08Z"/>
</svg>